<svg width="326" height="67" viewBox="0 0 326 67" fill="none" xmlns="http://www.w3.org/2000/svg">
<path d="M309.352 12.8977H311.872C313.188 12.8977 314.959 13.7349 317.183 15.4093C319.771 17.2195 321.655 19.3013 322.835 21.6545C323.561 22.6501 324.197 24.5056 324.741 27.2209C325.059 28.9406 325.218 30.3887 325.218 31.5654V35.231C325.218 36.5434 324.9 37.8105 324.265 39.0324C323.084 42.2455 321.155 44.5083 318.477 45.8207C317.251 46.3185 316.116 46.6353 315.072 46.771C312.893 47.2688 311.577 47.5177 311.123 47.5177H308.467C307.15 47.5177 305.925 47.2462 304.79 46.7031C304.109 46.7031 302.77 46.0696 300.772 44.8024C299.819 44.8024 298.389 43.8068 296.482 41.8156C295.801 41.4083 294.894 40.2317 293.759 38.2857C292.351 35.8872 291.648 33.6018 291.648 31.4296V25.3202C291.648 23.9173 291.897 22.9669 292.397 22.4691C295.121 18.8487 297.39 16.7217 299.206 16.0881C299.615 15.6356 301.067 14.8889 303.564 13.848L307.854 13.0334C308.217 12.9429 308.717 12.8977 309.352 12.8977ZM299.547 25.7275V30.7508C299.728 32.1537 300.455 33.7602 301.726 35.5704C303.088 36.9281 304.086 37.6295 304.722 37.6748C306.084 38.6251 307.173 39.1003 307.99 39.1003C308.308 39.3718 308.603 39.5076 308.876 39.5076H310.918C313.869 39.0098 315.708 38.4215 316.434 37.7427C317.07 37.0638 317.592 36.0908 318 34.8237C318.091 34.8237 318.227 34.439 318.409 33.6697V30.1398C318 27.2435 317.41 25.2749 316.638 24.234C316.003 22.8764 314.686 21.6093 312.689 20.4326C312.689 20.2969 312.235 20.0706 311.327 19.7538H310.442C308.217 19.7538 305.993 20.41 303.769 21.7224C303.496 21.9939 302.997 22.2881 302.27 22.6049C301.408 23.3742 300.5 24.4151 299.547 25.7275Z" fill="#2C2323"/>
<path d="M286.16 10.8612C288.112 10.8612 289.27 11.721 289.633 13.4407V13.848C289.633 14.6626 289.156 15.4772 288.203 16.2918V22.3333C288.203 23.9172 288.385 26.1121 288.748 28.9179V30.9544C288.748 31.4069 288.793 31.8369 288.884 32.2442C288.884 32.4252 288.839 32.5157 288.748 32.5157C288.839 34.0996 288.884 35.2762 288.884 36.0456V40.9331C288.884 41.5667 288.271 45.3455 287.046 52.2695C286.819 52.541 286.433 53.9665 285.888 56.5461C285.116 58.6278 283.686 60.3022 281.598 61.5694C280.055 62.2482 278.171 62.5876 275.946 62.5876C275.946 62.6781 275.56 62.7234 274.789 62.7234H271.656C270.703 62.7234 268.115 62.1577 263.894 61.0263C262.214 59.8949 260.966 58.8993 260.148 58.0395C259.785 57.4059 259.604 56.8629 259.604 56.4103C259.604 54.8264 260.648 53.876 262.736 53.5593C263.553 53.5593 264.574 54.1249 265.8 55.2563C265.8 55.4826 266.98 55.822 269.341 56.2746C269.341 56.3651 270.317 56.5687 272.269 56.8855H273.495C273.722 56.8855 274.879 56.8176 276.968 56.6818H277.58C279.079 56.2746 279.828 55.7994 279.828 55.2563C280.236 54.7133 280.577 53.7176 280.849 52.2695C280.94 52.2695 281.099 51.5907 281.326 50.233C281.553 50.233 282.075 47.3819 282.892 41.6798L283.028 40.9331V38.693H282.892C282.892 39.2361 281.825 39.9375 279.691 40.7973C278.103 41.8835 276.332 42.4718 274.38 42.5623H272.065C269.886 42.4718 267.843 41.8382 265.936 40.6616C265.255 40.209 264.438 39.5302 263.485 38.6251C262.032 36.9054 260.829 34.1449 259.876 30.3434C259.785 29.3931 259.74 28.5785 259.74 27.8997V26.4741C259.74 25.026 260.126 23.261 260.897 21.1793C261.578 18.9166 262.441 17.2421 263.485 16.156C263.667 16.156 264.37 15.5903 265.596 14.459C266.776 13.2823 268.547 12.694 270.907 12.694H271.384C274.289 12.694 276.309 13.0787 277.444 13.848C278.579 14.3458 279.873 15.0699 281.326 16.0202V15.8845C280.645 15.2962 280.304 14.5721 280.304 13.7122C280.304 12.1283 281.348 11.178 283.437 10.8612H286.16ZM281.462 16.0202V16.156C282.052 16.6538 282.37 16.9027 282.415 16.9027V16.6991C282.415 16.5633 282.097 16.337 281.462 16.0202ZM265.596 26.0669V28.5106C265.777 30.0945 266.504 32.131 267.775 34.62C267.866 34.62 268.388 35.0047 269.341 35.774C270.612 36.4529 271.906 36.7923 273.222 36.7923H273.495C274.493 36.7923 276.173 36.1361 278.534 34.8237C278.625 34.8237 279.101 34.3938 279.964 33.5339C280.418 33.5339 281.28 32.6515 282.551 30.8865C282.778 30.796 282.892 30.5245 282.892 30.0719V29.461C282.665 26.7909 282.551 25.1844 282.551 24.6413C281.643 24.6413 280.304 23.5326 278.534 21.3151C276.219 19.5954 274.221 18.645 272.541 18.464H270.771C269.818 18.464 268.592 19.3691 267.094 21.1793L265.596 26.0669Z" fill="#2C2323"/>
<path d="M243.963 13.7123H245.801C248.571 13.7123 250.545 14.6174 251.726 16.4276C254.041 18.8713 255.471 21.3377 256.015 23.8268C256.152 25.0486 256.22 26.0895 256.22 26.9493V28.4428C256.22 30.9318 255.289 32.3799 253.428 32.7872C252.656 33.1945 251.09 33.3982 248.729 33.3982H246.687L239.332 34.0091V34.1449C239.559 35.8646 240.059 37.2675 240.83 38.3536C241.511 39.485 242.692 40.0507 244.371 40.0507C244.371 40.2769 244.871 40.4127 245.869 40.458H246.959C249.365 40.458 250.568 40.2091 250.568 39.7113C251.158 38.9419 251.884 38.5572 252.747 38.5572C254.517 38.5572 255.516 39.8018 255.743 42.2908V42.4265C255.743 44.5535 254.79 46.0017 252.883 46.771C250.931 47.0878 249.024 47.2462 247.163 47.2462H246.006C241.557 46.7484 239.332 46.2506 239.332 45.7528C236.79 43.9426 235.065 41.4309 234.157 38.2178C233.295 35.3668 232.863 33.0588 232.863 31.2938V28.4428C233 25.5917 234.112 22.1976 236.2 18.2604C237.063 16.9933 238.493 15.6809 240.49 14.3232C241.58 13.9159 242.737 13.7123 243.963 13.7123ZM239.06 27.2209H239.196L245.801 26.6778H250.432C250.205 24.9581 249.592 23.6005 248.593 22.6049C247.594 21.202 246.732 20.5005 246.006 20.5005H243.69C242.873 20.5005 241.807 21.4056 240.49 23.2158L239.06 27.2209Z" fill="#2C2323"/>
<path d="M203.285 14.6626C204.783 14.6626 205.827 15.6809 206.417 17.7173C206.599 19.437 206.849 20.4779 207.167 20.8399C210.163 17.5363 213.386 15.8845 216.836 15.8845H218.811C221.217 15.8845 223.373 17.1064 225.28 19.5502C227.958 22.1297 229.297 24.0983 229.297 25.4559C229.887 27.5377 230.182 29.28 230.182 30.6829V36.0456C230.182 38.7609 228.593 41.0915 225.416 43.0375C222.647 44.3499 220.195 45.0061 218.062 45.0061H215.814C215.451 45.0061 213.862 44.6893 211.048 44.0557V44.463C211.048 45.6396 211.343 47.9929 211.933 51.5228L211.593 53.2199V55.46C211.411 57.8585 210.98 60.2344 210.299 62.5876C208.71 65.5292 206.94 67 204.988 67H202.128C200.448 67 198.587 66.0044 196.544 64.0132C195.954 63.2438 195.659 62.4066 195.659 61.5015C195.976 59.3293 196.975 58.2432 198.655 58.2432C199.472 58.2432 200.334 58.8088 201.242 59.9402C202.105 60.3928 202.604 60.619 202.74 60.619H204.443C205.078 59.5782 205.51 57.4738 205.737 54.306V50.6403L204.988 41.3404C204.715 40.1185 204.352 38.9645 203.898 37.8784L203.83 36.9959L203.898 36.7244L203.421 32.5157C203.058 31.0223 202.786 29.6194 202.604 28.307C202.423 28.307 202.264 27.6508 202.128 26.3384C201.991 25.7501 201.855 25.4559 201.719 25.4559C200.266 26.7683 199.109 27.4245 198.246 27.4245H198.11C196.113 27.0625 195.114 25.999 195.114 24.234C195.114 22.9216 196.022 21.745 197.838 20.7042C198.201 20.2516 198.927 18.9845 200.017 16.9027C201.015 15.4093 202.105 14.6626 203.285 14.6626ZM208.733 28.9858C209.504 32.923 209.89 35.1405 209.89 35.6383C211.797 37.4032 213.386 38.2857 214.657 38.2857C215.474 38.5572 216.246 38.693 216.972 38.693C219.378 38.693 221.625 37.9916 223.713 36.5887L224.394 35.6383V31.9726C224.394 30.3435 224.031 28.4654 223.305 26.3384C223.214 26.3384 222.578 25.6822 221.398 24.3698C220.082 22.9669 219.174 22.2655 218.674 22.2655H216.359C215.088 22.4465 213.454 23.3742 211.456 25.0486C210.594 25.818 209.845 26.9041 209.209 28.307C208.982 28.7595 208.823 28.9858 208.733 28.9858Z" fill="#2C2323"/>
<path d="M170.584 4.00506C170.22 2.28537 169.063 1.42553 167.111 1.42553H156.08C154.037 1.74231 153.015 2.69266 153.015 4.27659V4.616C153.378 6.33569 154.536 7.19553 156.488 7.19553H158.19V12.151C158.19 12.6035 158.1 13.6444 157.918 15.2735C157.918 18.6224 157.873 27.7187 157.782 42.5623H156.624C154.536 42.8791 153.492 43.8294 153.492 45.4134C153.492 47.0878 154.491 48.0834 156.488 48.4002C159.166 48.4002 161.845 48.2644 164.523 47.9929C166.566 47.7214 167.587 46.771 167.587 45.1418V44.8024C167.224 43.0827 166.067 42.2229 164.115 42.2229H163.57V30.0719H163.978C164.432 30.0719 165.159 29.5967 166.157 28.6464C166.339 29.28 166.521 29.5967 166.702 29.5967C167.429 31.8595 168.041 33.3982 168.541 34.2128C168.541 35.3441 169.085 36.6792 170.175 38.2178C170.947 39.485 171.423 40.4353 171.605 41.0689C172.967 43.0601 174.737 44.3951 176.916 45.074C179.186 45.8433 180.661 46.228 181.342 46.228C183.294 46.8163 186.177 47.1104 189.99 47.1104H190.876C192.101 47.6082 192.85 47.8571 193.123 47.8571H193.463C195.188 47.4951 196.051 46.3411 196.051 44.3951V40.3901C195.733 38.3536 194.78 37.3354 193.191 37.3354C191.375 37.3354 190.308 38.6477 189.99 41.2725H187.811C183.499 40.7747 180.82 40.2769 179.776 39.7791C178.505 39.4623 177.552 39.0324 176.916 38.4894C176.508 37.4032 175.736 35.9777 174.601 34.2128C173.058 29.642 172.195 27.3114 172.014 27.2209L171.128 23.7589C171.355 23.7589 172.649 22.5143 175.01 20.0253C176.462 18.2151 177.279 17.31 177.461 17.31C179.368 15.2283 180.389 14.1874 180.525 14.1874C181.66 12.6488 182.432 11.8794 182.84 11.8794C183.294 11.0648 184.384 9.86558 186.109 8.28165H190.127C190.717 8.28165 210.685 8.67947 223.859 8.79074C257.481 9.07472 307.681 8.85916 320.736 8.80311L320.741 8.80309C322.48 8.79562 323.872 7.38512 323.872 5.65119C323.872 3.91727 322.462 2.51164 320.723 2.51164H181.547C179.504 2.78317 178.482 3.7109 178.482 5.29482C178.482 5.79263 178.641 6.35831 178.959 6.99188C178.959 7.1729 178.573 7.55757 177.802 8.14589C176.213 10.1824 174.374 12.1283 172.286 13.9838C171.06 15.6582 169.812 16.9932 168.541 17.9888C167.814 18.7582 167.383 19.1428 167.247 19.1428C165.023 21.4509 163.842 22.6049 163.706 22.6049V16.156C163.706 16.0203 163.797 14.9794 163.978 13.0334V7.19553H167.451C169.539 6.924 170.584 5.99628 170.584 4.41235V4.00506Z" fill="#D2153D"/>
<path d="M134.329 12.8977H136.849C138.165 12.8977 139.936 13.7349 142.16 15.4093C144.748 17.2195 146.632 19.3013 147.812 21.6545C148.538 22.6501 149.174 24.5056 149.719 27.2209C150.036 28.9406 150.195 30.3887 150.195 31.5654V35.231C150.195 36.5434 149.877 37.8105 149.242 39.0324C148.062 42.2455 146.132 44.5083 143.454 45.8207C142.228 46.3185 141.093 46.6353 140.049 46.771C137.87 47.2688 136.554 47.5177 136.1 47.5177H133.444C132.128 47.5177 130.902 47.2462 129.767 46.7031C129.086 46.7031 127.747 46.0696 125.749 44.8024C124.796 44.8024 123.366 43.8068 121.46 41.8156C120.779 41.4083 119.871 40.2317 118.736 38.2857C117.329 35.8872 116.625 33.6018 116.625 31.4296V25.3202C116.625 23.9173 116.875 22.9669 117.374 22.4691C120.098 18.8487 122.367 16.7217 124.183 16.0881C124.592 15.6356 126.045 14.8889 128.541 13.848L132.831 13.0334C133.194 12.9429 133.694 12.8977 134.329 12.8977ZM124.524 25.7275V30.7508C124.705 32.1537 125.432 33.7602 126.703 35.5704C128.065 36.9281 129.063 37.6295 129.699 37.6748C131.061 38.6251 132.15 39.1003 132.967 39.1003C133.285 39.3718 133.58 39.5076 133.853 39.5076H135.895C138.846 39.0098 140.685 38.4215 141.411 37.7427C142.047 37.0638 142.569 36.0908 142.977 34.8237C143.068 34.8237 143.204 34.439 143.386 33.6697V30.1398C142.977 27.2435 142.387 25.2749 141.615 24.234C140.98 22.8764 139.663 21.6093 137.666 20.4326C137.666 20.2969 137.212 20.0706 136.304 19.7538H135.419C133.194 19.7538 130.97 20.41 128.746 21.7224C128.473 21.9939 127.974 22.2881 127.248 22.6049C126.385 23.3742 125.477 24.4151 124.524 25.7275Z" fill="#2C2323"/>
<path d="M102.707 0H104.886C107.337 0 109.925 1.33502 112.649 4.00507C113.148 4.95542 113.398 5.86052 113.398 6.72036C113.398 8.62107 113.103 10.2503 112.513 11.6079C111.922 12.875 111.287 13.9612 110.606 14.8663C110.243 15.4998 109.289 16.7896 107.746 18.7356C107.065 20.048 104.909 22.0618 101.277 24.7771C100.732 25.3654 100.46 25.6822 100.46 25.7275H101.413C104.546 25.9537 106.906 26.3836 108.495 27.0172C111.945 29.3705 113.761 30.6829 113.943 30.9544C114.987 32.4931 115.509 33.8733 115.509 35.0952V37.0638C115.146 39.8696 114.805 41.2725 114.487 41.2725C113.852 43.309 112.898 44.6893 111.627 45.4134C111.355 46.0922 110.265 46.7936 108.359 47.5177C107.406 47.8345 106.384 47.9929 105.295 47.9929H101.686C101.005 47.9929 99.0981 47.8345 95.9657 47.5177C93.6052 47.5177 92.0844 47.0425 91.4035 46.0922C91.0857 46.0922 90.6317 43.7163 90.0416 38.9645V33.8055C90.1778 32.3573 90.2459 31.5427 90.2459 31.3617V30.4792C90.0189 29.5289 89.9054 28.9179 89.9054 28.6464C89.9054 28.5559 90.0189 27.9676 90.2459 26.8815C90.1097 25.7048 90.0416 24.9581 90.0416 24.6413V21.1793C90.0416 20.3647 90.2459 18.8261 90.6544 16.5633C90.7452 16.5633 90.7906 16.5181 90.7906 16.4276V16.0203C91.2446 11.2232 91.7212 8.82472 92.2206 8.82472C93.0377 7.19554 93.5598 6.3357 93.7867 6.24519C94.2861 5.79264 94.7174 5.22695 95.0805 4.54813C98.1221 1.51604 100.664 0 102.707 0ZM95.8296 21.8582L98.2809 19.4823C98.5987 19.4823 99.7563 18.5772 101.754 16.767C101.754 16.6312 102.185 16.1334 103.048 15.2736C103.048 15.0925 103.706 14.2327 105.022 12.694C106.566 10.4313 107.428 8.71158 107.61 7.53495C106.339 6.40358 105.385 5.83789 104.75 5.83789H102.979C101.345 6.69774 100.074 7.7386 99.1662 8.96049C97.8043 10.5444 97.1234 11.8568 97.1234 12.8977L95.8296 21.8582ZM96.1019 31.4975V32.3799C95.9204 33.8733 95.8296 34.6879 95.8296 34.8237V38.3536C96.2381 40.5711 96.4878 41.6798 96.5786 41.6798C98.0313 41.6798 99.5066 41.8609 101.005 42.2229H105.567C107.791 41.5441 108.904 40.4579 108.904 38.9645C109.221 38.9645 109.471 37.9463 109.653 35.9098V35.7741C109.653 35.0952 108.79 34.2806 107.065 33.3303C106.157 32.2894 104.387 31.769 101.754 31.769C101.754 31.6332 101.254 31.5427 100.256 31.4975H96.1019Z" fill="#2C2323"/>
<path d="M71.3557 12.8977H73.8751C75.1916 12.8977 76.9621 13.7349 79.1865 15.4093C81.774 17.2195 83.658 19.3013 84.8383 21.6545C85.5646 22.6501 86.2002 24.5056 86.7449 27.2209C87.0627 28.9406 87.2216 30.3887 87.2216 31.5654V35.231C87.2216 36.5434 86.9038 37.8105 86.2682 39.0324C85.088 42.2455 83.1586 44.5083 80.4803 45.8207C79.2546 46.3185 78.1197 46.6353 77.0756 46.771C74.8965 47.2688 73.5801 47.5177 73.1261 47.5177H70.4704C69.1539 47.5177 67.9283 47.2462 66.7934 46.7031C66.1124 46.7031 64.7732 46.0696 62.7758 44.8024C61.8225 44.8024 60.3925 43.8068 58.4859 41.8156C57.8049 41.4083 56.897 40.2317 55.7621 38.2857C54.3548 35.8872 53.6512 33.6018 53.6512 31.4296V25.3202C53.6512 23.9173 53.9009 22.9669 54.4002 22.4691C57.124 18.8487 59.3938 16.7217 61.2096 16.0881C61.6182 15.6356 63.0709 14.8889 65.5677 13.848L69.8576 13.0334C70.2207 12.9429 70.7201 12.8977 71.3557 12.8977ZM61.5501 25.7275V30.7508C61.7317 32.1537 62.458 33.7602 63.7291 35.5704C65.091 36.9281 66.0897 37.6295 66.7253 37.6748C68.0871 38.6251 69.1766 39.1003 69.9938 39.1003C70.3115 39.3718 70.6066 39.5076 70.879 39.5076H72.9218C75.8726 39.0098 77.7111 38.4215 78.4374 37.7427C79.073 37.0638 79.595 36.0908 80.0036 34.8237C80.0944 34.8237 80.2306 34.439 80.4122 33.6697V30.1398C80.0036 27.2435 79.4135 25.2749 78.6417 24.234C78.0062 22.8764 76.6897 21.6093 74.6923 20.4326C74.6923 20.2969 74.2383 20.0706 73.3304 19.7538H72.4452C70.2208 19.7538 67.9963 20.41 65.7719 21.7224C65.4996 21.9939 65.0002 22.2881 64.2739 22.6049C63.4113 23.3742 62.5034 24.4151 61.5501 25.7275Z" fill="#2C2323"/>
<path d="M13.2102 1.96858C14.7083 1.96858 15.6616 2.96419 16.0702 4.95541C15.707 7.08239 14.6175 8.14588 12.8017 8.14588C11.5306 8.41741 10.8496 8.55318 10.7589 8.55318V8.68894C10.7589 9.45828 10.9177 11.2685 11.2355 14.1195C11.2355 14.4363 11.3263 15.3188 11.5079 16.767V17.5815C11.5079 19.799 11.6441 21.7676 11.9165 23.4873H16.5468C19.6338 22.9895 21.4042 22.7406 21.8582 22.7406H24.5819C26.1708 22.4691 27.1241 22.3333 27.4419 22.3333H29.1442C31.8226 22.6048 34.1378 22.899 36.0898 23.2158C36.0898 23.3063 36.9524 23.3968 38.6774 23.4873V14.459C39.0406 11.9247 39.2222 10.0013 39.2222 8.68894H37.3836C35.4316 8.68894 34.274 7.8291 33.9108 6.10941V5.70211C33.9108 4.11819 34.9322 3.16784 36.9751 2.85105H45.9635C46.4174 2.85105 47.0076 2.8058 47.7339 2.71529C49.1412 2.71529 50.0491 3.7109 50.4577 5.70211C50.4577 7.46706 49.3909 8.46267 47.2573 8.68894H45.0102C44.9194 11.359 44.7605 13.667 44.5335 15.613V23.2158C44.7605 25.207 44.874 27.1077 44.874 28.9179V32.3799C44.874 34.3259 44.6243 37.5164 44.1249 41.9514V42.3586L45.4187 42.2229H46.7125C48.6645 42.2229 49.8221 43.0827 50.1853 44.8024V45.1418C50.1853 46.771 49.1639 47.7214 47.1211 47.9929L41.5374 48.6717H39.3583C37.4063 48.6265 35.8402 48.287 34.6599 47.6535C33.9789 46.8389 33.6384 46.0469 33.6384 45.2776C34.047 43.4221 35.0003 42.4944 36.4984 42.4944C37.0431 42.5397 37.6106 42.5623 38.2007 42.5623H38.2688V40.7973C38.8136 36.5434 39.086 33.6923 39.086 32.2442V29.461C38.2688 29.28 36.7027 29.1442 34.3875 29.0537C34.3875 28.8274 33.0256 28.6011 30.3018 28.3749C28.94 28.2391 28.2363 28.1712 28.1909 28.1712C26.9652 28.3975 24.7181 28.5559 21.4496 28.6464C19.0436 29.0989 17.4094 29.3252 16.5468 29.3252H12.1888L12.325 30.615V33.1945C12.325 34.5974 12.4385 36.2719 12.6655 38.2178V42.0871C12.7109 42.0871 13.1875 41.9966 14.0955 41.8156C15.6843 41.8156 16.6376 42.8565 16.9554 44.9382C16.9554 46.6579 15.8659 47.6309 13.6869 47.8571H4.63039C2.67836 47.8571 1.52077 46.9973 1.1576 45.2776V44.9382C1.1576 43.3543 2.20171 42.4039 4.28992 42.0871H6.8775V39.2361C6.60512 37.3806 6.46893 35.1405 6.46893 32.5157V31.769C6.28735 30.3208 6.19656 29.5062 6.19656 29.3252V28.9179C6.19656 27.153 5.94688 22.6501 5.44752 15.4093V14.1195C5.08435 13.0787 4.90277 11.2685 4.90277 8.68894H3.4728C1.52077 8.68894 0.363168 7.8291 0 6.10941V5.70211C0 4.11819 1.04411 3.16784 3.13233 2.85105C9.0792 2.8058 12.0526 2.60215 12.0526 2.24011C12.1888 2.1496 12.5747 2.05909 13.2102 1.96858Z" fill="#2C2323"/>
</svg>
