<svg width="154" height="33" viewBox="0 0 154 33" fill="none" xmlns="http://www.w3.org/2000/svg">
<path d="M146.177 6.93602H147.361C147.979 6.93602 148.811 7.33069 149.857 8.12002C151.073 8.97335 151.958 9.95469 152.513 11.064C152.854 11.5334 153.153 12.408 153.409 13.688C153.558 14.4987 153.633 15.1814 153.633 15.736V17.464C153.633 18.0827 153.483 18.68 153.185 19.256C152.63 20.7707 151.723 21.8374 150.465 22.456C149.889 22.6907 149.355 22.84 148.865 22.904C147.841 23.1387 147.222 23.256 147.009 23.256H145.761C145.142 23.256 144.566 23.128 144.033 22.872C143.713 22.872 143.083 22.5734 142.145 21.976C141.697 21.976 141.025 21.5067 140.129 20.568C139.809 20.376 139.382 19.8214 138.849 18.904C138.187 17.7734 137.857 16.696 137.857 15.672V12.792C137.857 12.1307 137.974 11.6827 138.209 11.448C139.489 9.74135 140.555 8.73869 141.409 8.44002C141.601 8.22669 142.283 7.87469 143.457 7.38402L145.473 7.00002C145.643 6.95735 145.878 6.93602 146.177 6.93602ZM141.569 12.984V15.352C141.654 16.0134 141.995 16.7707 142.593 17.624C143.233 18.264 143.702 18.5947 144.001 18.616C144.641 19.064 145.153 19.288 145.537 19.288C145.686 19.416 145.825 19.48 145.953 19.48H146.913C148.299 19.2454 149.163 18.968 149.505 18.648C149.803 18.328 150.049 17.8694 150.241 17.272C150.283 17.272 150.347 17.0907 150.433 16.728V15.064C150.241 13.6987 149.963 12.7707 149.601 12.28C149.302 11.64 148.683 11.0427 147.745 10.488C147.745 10.424 147.531 10.3174 147.105 10.168H146.689C145.643 10.168 144.598 10.4774 143.553 11.096C143.425 11.224 143.19 11.3627 142.849 11.512C142.443 11.8747 142.017 12.3654 141.569 12.984Z" fill="white"/>
<path d="M135.278 5.97601C136.195 5.97601 136.739 6.38135 136.91 7.19201V7.38401C136.91 7.76801 136.686 8.15201 136.238 8.53601V11.384C136.238 12.1307 136.323 13.1653 136.494 14.488V15.448C136.494 15.6613 136.515 15.864 136.558 16.056C136.558 16.1413 136.536 16.184 136.494 16.184C136.536 16.9307 136.558 17.4853 136.558 17.848V20.152C136.558 20.4507 136.27 22.232 135.694 25.496C135.587 25.624 135.406 26.296 135.15 27.512C134.787 28.4933 134.115 29.2827 133.134 29.88C132.408 30.2 131.523 30.36 130.478 30.36C130.478 30.4027 130.296 30.424 129.934 30.424H128.462C128.014 30.424 126.798 30.1573 124.814 29.624C124.024 29.0907 123.438 28.6213 123.054 28.216C122.883 27.9173 122.798 27.6613 122.798 27.448C122.798 26.7013 123.288 26.2533 124.27 26.104C124.654 26.104 125.134 26.3707 125.71 26.904C125.71 27.0107 126.264 27.1707 127.374 27.384C127.374 27.4267 127.832 27.5227 128.75 27.672H129.326C129.432 27.672 129.976 27.64 130.958 27.576H131.246C131.95 27.384 132.302 27.16 132.302 26.904C132.494 26.648 132.654 26.1787 132.782 25.496C132.824 25.496 132.899 25.176 133.006 24.536C133.112 24.536 133.358 23.192 133.742 20.504L133.806 20.152V19.096H133.742C133.742 19.352 133.24 19.6827 132.238 20.088C131.491 20.6 130.659 20.8773 129.742 20.92H128.654C127.63 20.8773 126.67 20.5787 125.774 20.024C125.454 19.8107 125.07 19.4907 124.622 19.064C123.939 18.2533 123.374 16.952 122.926 15.16C122.883 14.712 122.862 14.328 122.862 14.008V13.336C122.862 12.6533 123.043 11.8213 123.406 10.84C123.726 9.77335 124.131 8.98401 124.622 8.47201C124.707 8.47201 125.038 8.20535 125.614 7.67201C126.168 7.11735 127 6.84001 128.11 6.84001H128.334C129.699 6.84001 130.648 7.02135 131.182 7.38401C131.715 7.61868 132.323 7.96001 133.006 8.40801V8.34401C132.686 8.06668 132.526 7.72535 132.526 7.32001C132.526 6.57335 133.016 6.12535 133.998 5.97601H135.278ZM133.07 8.40801V8.47201C133.347 8.70668 133.496 8.82401 133.518 8.82401V8.72801C133.518 8.66401 133.368 8.55735 133.07 8.40801ZM125.614 13.144V14.296C125.699 15.0427 126.04 16.0027 126.638 17.176C126.68 17.176 126.926 17.3573 127.374 17.72C127.971 18.04 128.579 18.2 129.198 18.2H129.326C129.795 18.2 130.584 17.8907 131.694 17.272C131.736 17.272 131.96 17.0693 132.366 16.664C132.579 16.664 132.984 16.248 133.582 15.416C133.688 15.3733 133.742 15.2453 133.742 15.032V14.744C133.635 13.4853 133.582 12.728 133.582 12.472C133.155 12.472 132.526 11.9493 131.694 10.904C130.606 10.0933 129.667 9.64535 128.878 9.56001H128.046C127.598 9.56001 127.022 9.98668 126.318 10.84L125.614 13.144Z" fill="white"/>
<path d="M115.448 7.32002H116.312C117.613 7.32002 118.541 7.74669 119.096 8.60002C120.184 9.75202 120.856 10.9147 121.112 12.088C121.176 12.664 121.208 13.1547 121.208 13.56V14.264C121.208 15.4374 120.77 16.12 119.896 16.312C119.533 16.504 118.797 16.6 117.688 16.6H116.728L113.272 16.888V16.952C113.378 17.7627 113.613 18.424 113.976 18.936C114.296 19.4694 114.85 19.736 115.64 19.736C115.64 19.8427 115.874 19.9067 116.344 19.928H116.856C117.986 19.928 118.552 19.8107 118.552 19.576C118.829 19.2134 119.17 19.032 119.576 19.032C120.408 19.032 120.877 19.6187 120.984 20.792V20.856C120.984 21.8587 120.536 22.5414 119.64 22.904C118.722 23.0534 117.826 23.128 116.952 23.128H116.408C114.317 22.8934 113.272 22.6587 113.272 22.424C112.077 21.5707 111.266 20.3867 110.84 18.872C110.434 17.528 110.232 16.44 110.232 15.608V14.264C110.296 12.92 110.818 11.32 111.8 9.46402C112.205 8.86669 112.877 8.24802 113.816 7.60802C114.328 7.41602 114.872 7.32002 115.448 7.32002ZM113.144 13.688H113.208L116.312 13.432H118.488C118.381 12.6214 118.093 11.9814 117.624 11.512C117.154 10.8507 116.749 10.52 116.408 10.52H115.32C114.936 10.52 114.434 10.9467 113.816 11.8L113.144 13.688Z" fill="white"/>
<path d="M96.3316 7.76802C97.0356 7.76802 97.5262 8.24802 97.8036 9.20802C97.8889 10.0187 98.0062 10.5094 98.1556 10.68C99.5636 9.12269 101.078 8.34402 102.7 8.34402H103.628C104.758 8.34402 105.772 8.92002 106.668 10.072C107.926 11.288 108.556 12.216 108.556 12.856C108.833 13.8374 108.972 14.6587 108.972 15.32V17.848C108.972 19.128 108.225 20.2267 106.732 21.144C105.43 21.7627 104.278 22.072 103.276 22.072H102.22C102.049 22.072 101.302 21.9227 99.9796 21.624V21.816C99.9796 22.3707 100.118 23.48 100.396 25.144L100.236 25.944V27C100.15 28.1307 99.9476 29.2507 99.6276 30.36C98.8809 31.7467 98.0489 32.44 97.1316 32.44H95.7876C94.9982 32.44 94.1236 31.9707 93.1636 31.032C92.8862 30.6694 92.7476 30.2747 92.7476 29.848C92.8969 28.824 93.3662 28.312 94.1556 28.312C94.5396 28.312 94.9449 28.5787 95.3716 29.112C95.7769 29.3254 96.0116 29.432 96.0756 29.432H96.8756C97.1742 28.9414 97.3769 27.9494 97.4836 26.456V24.728L97.1316 20.344C97.0036 19.768 96.8329 19.224 96.6196 18.712L96.5876 18.296L96.6196 18.168L96.3956 16.184C96.2249 15.48 96.0969 14.8187 96.0116 14.2C95.9262 14.2 95.8516 13.8907 95.7876 13.272C95.7236 12.9947 95.6596 12.856 95.5956 12.856C94.9129 13.4747 94.3689 13.784 93.9636 13.784H93.8996C92.9609 13.6134 92.4916 13.112 92.4916 12.28C92.4916 11.6614 92.9182 11.1067 93.7716 10.616C93.9422 10.4027 94.2836 9.80535 94.7956 8.82402C95.2649 8.12002 95.7769 7.76802 96.3316 7.76802ZM98.8916 14.52C99.2542 16.376 99.4356 17.4214 99.4356 17.656C100.332 18.488 101.078 18.904 101.676 18.904C102.06 19.032 102.422 19.096 102.764 19.096C103.894 19.096 104.95 18.7654 105.932 18.104L106.252 17.656V15.928C106.252 15.16 106.081 14.2747 105.74 13.272C105.697 13.272 105.398 12.9627 104.844 12.344C104.225 11.6827 103.798 11.352 103.564 11.352H102.476C101.878 11.4374 101.11 11.8747 100.172 12.664C99.7662 13.0267 99.4142 13.5387 99.1156 14.2C99.0089 14.4134 98.9342 14.52 98.8916 14.52Z" fill="white"/>
<path d="M80.9638 2.74401C80.7932 1.93335 80.2492 1.52802 79.3318 1.52802H74.1478C73.1878 1.67735 72.7078 2.12535 72.7078 2.87201V3.03201C72.8785 3.84268 73.4225 4.24801 74.3398 4.24801H75.1398V6.58401C75.1398 6.79735 75.0972 7.28801 75.0118 8.05602C75.0118 9.63468 74.9905 13.9227 74.9478 20.92H74.4038C73.4225 21.0694 72.9318 21.5174 72.9318 22.264C72.9318 23.0534 73.4012 23.5227 74.3398 23.672C75.5985 23.672 76.8572 23.608 78.1158 23.48C79.0758 23.352 79.5558 22.904 79.5558 22.136V21.976C79.3852 21.1653 78.8412 20.76 77.9238 20.76H77.6678V15.032H77.8598C78.0732 15.032 78.4145 14.808 78.8838 14.36C78.9692 14.6587 79.0545 14.808 79.1398 14.808C79.4812 15.8747 79.7692 16.6 80.0038 16.984C80.0038 17.5173 80.2598 18.1467 80.7718 18.872C81.1345 19.4694 81.3585 19.9174 81.4438 20.216C82.0838 21.1547 82.9158 21.784 83.9398 22.104C85.0065 22.4667 85.6998 22.648 86.0198 22.648C86.9372 22.9254 88.2918 23.064 90.0838 23.064H90.4998C91.0758 23.2987 91.4278 23.416 91.5558 23.416H91.7158C92.5265 23.2454 92.9318 22.7014 92.9318 21.784V19.896C92.7825 18.936 92.3345 18.456 91.5878 18.456C90.7345 18.456 90.2332 19.0747 90.0838 20.312H89.0598C87.0332 20.0774 85.7745 19.8427 85.2838 19.608C84.6865 19.4587 84.2385 19.256 83.9398 19C83.7478 18.488 83.3852 17.816 82.8518 16.984C82.1265 14.8293 81.7212 13.7307 81.6358 13.688L81.2198 12.056C81.3265 12.056 81.9345 11.4693 83.0438 10.296C83.7265 9.44268 84.1105 9.01602 84.1958 9.01602C85.0918 8.03468 85.5718 7.54401 85.6358 7.54401C86.1692 6.81868 86.5318 6.45601 86.7238 6.45601C86.9372 6.07201 87.4492 5.50668 88.2598 4.76001H90.1478C90.4252 4.76001 99.8089 4.94754 106 5C121.8 5.13387 145.391 5.03226 151.526 5.00583L151.529 5.00582C152.346 5.0023 153 4.33738 153 3.52001C153 2.70263 152.337 2.04001 151.52 2.04001H86.1158C85.1558 2.16801 84.6758 2.60535 84.6758 3.35201C84.6758 3.58668 84.7505 3.85335 84.8998 4.15201C84.8998 4.23735 84.7185 4.41868 84.3558 4.69601C83.6092 5.65601 82.7452 6.57335 81.7638 7.44801C81.1878 8.23735 80.6012 8.86668 80.0038 9.33601C79.6625 9.69868 79.4598 9.88001 79.3958 9.88001C78.3505 10.968 77.7958 11.512 77.7318 11.512V8.47201C77.7318 8.40801 77.7745 7.91735 77.8598 7.00002V4.24801H79.4918C80.4732 4.12001 80.9638 3.68268 80.9638 2.93601V2.74401Z" fill="white"/>
<path d="M63.9266 6.93602H65.1106C65.7292 6.93602 66.5612 7.33069 67.6066 8.12002C68.8226 8.97335 69.7079 9.95469 70.2626 11.064C70.6039 11.5334 70.9026 12.408 71.1586 13.688C71.3079 14.4987 71.3826 15.1814 71.3826 15.736V17.464C71.3826 18.0827 71.2332 18.68 70.9346 19.256C70.3799 20.7707 69.4732 21.8374 68.2146 22.456C67.6386 22.6907 67.1052 22.84 66.6146 22.904C65.5906 23.1387 64.9719 23.256 64.7586 23.256H63.5106C62.8919 23.256 62.3159 23.128 61.7826 22.872C61.4626 22.872 60.8332 22.5734 59.8946 21.976C59.4466 21.976 58.7746 21.5067 57.8786 20.568C57.5586 20.376 57.1319 19.8214 56.5986 18.904C55.9372 17.7734 55.6066 16.696 55.6066 15.672V12.792C55.6066 12.1307 55.7239 11.6827 55.9586 11.448C57.2386 9.74135 58.3052 8.73869 59.1586 8.44002C59.3506 8.22669 60.0332 7.87469 61.2066 7.38402L63.2226 7.00002C63.3932 6.95735 63.6279 6.93602 63.9266 6.93602ZM59.3186 12.984V15.352C59.4039 16.0134 59.7452 16.7707 60.3426 17.624C60.9826 18.264 61.4519 18.5947 61.7506 18.616C62.3906 19.064 62.9026 19.288 63.2866 19.288C63.4359 19.416 63.5746 19.48 63.7026 19.48H64.6626C66.0492 19.2454 66.9132 18.968 67.2546 18.648C67.5532 18.328 67.7986 17.8694 67.9906 17.272C68.0332 17.272 68.0972 17.0907 68.1826 16.728V15.064C67.9906 13.6987 67.7132 12.7707 67.3506 12.28C67.0519 11.64 66.4332 11.0427 65.4946 10.488C65.4946 10.424 65.2812 10.3174 64.8546 10.168H64.4386C63.3932 10.168 62.3479 10.4774 61.3026 11.096C61.1746 11.224 60.9399 11.3627 60.5986 11.512C60.1932 11.8747 59.7666 12.3654 59.3186 12.984Z" fill="white"/>
<path d="M49.0661 0.856018H50.09C51.2421 0.856018 52.458 1.48535 53.738 2.74402C53.9727 3.19202 54.09 3.61868 54.09 4.02402C54.09 4.92002 53.9514 5.68802 53.674 6.32802C53.3967 6.92535 53.098 7.43735 52.778 7.86402C52.6074 8.16269 52.1594 8.77069 51.434 9.68802C51.114 10.3067 50.1007 11.256 48.3941 12.536C48.1381 12.8134 48.0101 12.9627 48.0101 12.984H48.458C49.93 13.0907 51.0394 13.2934 51.786 13.592C53.4074 14.7014 54.2607 15.32 54.3461 15.448C54.8367 16.1734 55.0821 16.824 55.0821 17.4V18.328C54.9114 19.6507 54.7514 20.312 54.6021 20.312C54.3034 21.272 53.8554 21.9227 53.258 22.264C53.13 22.584 52.6181 22.9147 51.722 23.256C51.274 23.4054 50.7941 23.48 50.2821 23.48H48.586C48.266 23.48 47.37 23.4054 45.898 23.256C44.7887 23.256 44.0741 23.032 43.7541 22.584C43.6047 22.584 43.3914 21.464 43.114 19.224V16.792C43.178 16.1094 43.21 15.7254 43.21 15.64V15.224C43.1034 14.776 43.05 14.488 43.05 14.36C43.05 14.3174 43.1034 14.04 43.21 13.528C43.146 12.9734 43.114 12.6214 43.114 12.472V10.84C43.114 10.456 43.21 9.73068 43.4021 8.66402C43.4447 8.66402 43.466 8.64269 43.466 8.60002V8.40802C43.6794 6.14668 43.9034 5.01602 44.1381 5.01602C44.5221 4.24802 44.7674 3.84268 44.8741 3.80002C45.1087 3.58669 45.3114 3.32002 45.482 3.00002C46.9114 1.57069 48.1061 0.856018 49.0661 0.856018ZM45.834 11.16L46.986 10.04C47.1354 10.04 47.6794 9.61335 48.618 8.76002C48.618 8.69602 48.8207 8.46135 49.2261 8.05602C49.2261 7.97069 49.5354 7.56535 50.154 6.84002C50.8794 5.77335 51.2847 4.96269 51.3701 4.40802C50.7727 3.87469 50.3247 3.60802 50.0261 3.60802H49.194C48.426 4.01335 47.8287 4.50402 47.4021 5.08002C46.762 5.82668 46.4421 6.44535 46.4421 6.93602L45.834 11.16ZM45.9621 15.704V16.12C45.8767 16.824 45.834 17.208 45.834 17.272V18.936C46.026 19.9814 46.1434 20.504 46.1861 20.504C46.8687 20.504 47.562 20.5894 48.266 20.76H50.41C51.4554 20.44 51.9781 19.928 51.9781 19.224C52.1274 19.224 52.2447 18.744 52.3301 17.784V17.72C52.3301 17.4 51.9247 17.016 51.114 16.568C50.6874 16.0774 49.8554 15.832 48.618 15.832C48.618 15.768 48.3834 15.7254 47.9141 15.704H45.9621Z" fill="white"/>
<path d="M34.3328 6.93602H35.5168C36.1355 6.93602 36.9675 7.33069 38.0128 8.12002C39.2288 8.97335 40.1141 9.95469 40.6688 11.064C41.0101 11.5334 41.3088 12.408 41.5648 13.688C41.7142 14.4987 41.7888 15.1814 41.7888 15.736V17.464C41.7888 18.0827 41.6395 18.68 41.3408 19.256C40.7862 20.7707 39.8795 21.8374 38.6208 22.456C38.0448 22.6907 37.5115 22.84 37.0208 22.904C35.9968 23.1387 35.3782 23.256 35.1648 23.256H33.9168C33.2982 23.256 32.7222 23.128 32.1888 22.872C31.8688 22.872 31.2395 22.5734 30.3008 21.976C29.8528 21.976 29.1808 21.5067 28.2848 20.568C27.9648 20.376 27.5381 19.8214 27.0048 18.904C26.3435 17.7734 26.0128 16.696 26.0128 15.672V12.792C26.0128 12.1307 26.1302 11.6827 26.3648 11.448C27.6448 9.74135 28.7115 8.73869 29.5648 8.44002C29.7568 8.22669 30.4395 7.87469 31.6128 7.38402L33.6288 7.00002C33.7995 6.95735 34.0342 6.93602 34.3328 6.93602ZM29.7248 12.984V15.352C29.8102 16.0134 30.1515 16.7707 30.7488 17.624C31.3888 18.264 31.8581 18.5947 32.1568 18.616C32.7968 19.064 33.3088 19.288 33.6928 19.288C33.8422 19.416 33.9808 19.48 34.1088 19.48H35.0688C36.4555 19.2454 37.3195 18.968 37.6608 18.648C37.9595 18.328 38.2048 17.8694 38.3968 17.272C38.4395 17.272 38.5035 17.0907 38.5888 16.728V15.064C38.3968 13.6987 38.1195 12.7707 37.7568 12.28C37.4582 11.64 36.8395 11.0427 35.9008 10.488C35.9008 10.424 35.6875 10.3174 35.2608 10.168H34.8448C33.7995 10.168 32.7542 10.4774 31.7088 11.096C31.5808 11.224 31.3461 11.3627 31.0048 11.512C30.5995 11.8747 30.1728 12.3654 29.7248 12.984Z" fill="white"/>
<path d="M7.00805 1.78401C7.71205 1.78401 8.16005 2.25335 8.35205 3.19201C8.18138 4.19468 7.66938 4.69601 6.81605 4.69601C6.21872 4.82401 5.89872 4.88801 5.85605 4.88801V4.95201C5.85605 5.31468 5.93072 6.16801 6.08005 7.51201C6.08005 7.66135 6.12272 8.07735 6.20805 8.76001V9.14401C6.20805 10.1893 6.27205 11.1173 6.40005 11.928H8.57605C10.0267 11.6933 10.8587 11.576 11.072 11.576H12.352C13.0987 11.448 13.5467 11.384 13.696 11.384H14.496C15.7547 11.512 16.8427 11.6507 17.76 11.8C17.76 11.8427 18.1654 11.8853 18.9761 11.928V7.67201C19.1467 6.47735 19.232 5.57068 19.232 4.95201H18.368C17.4507 4.95201 16.9067 4.54668 16.736 3.73601V3.54401C16.736 2.79735 17.216 2.34935 18.1761 2.20001H22.4001C22.6134 2.20001 22.8907 2.17868 23.232 2.13601C23.8934 2.13601 24.3201 2.60535 24.5121 3.54401C24.5121 4.37601 24.0107 4.84535 23.0081 4.95201H21.9521C21.9094 6.21068 21.8347 7.29868 21.7281 8.21601V11.8C21.8347 12.7387 21.8881 13.6347 21.8881 14.488V16.12C21.8881 17.0373 21.7707 18.5413 21.5361 20.632V20.824L22.1441 20.76H22.7521C23.6694 20.76 24.2134 21.1653 24.3841 21.976V22.136C24.3841 22.904 23.9041 23.352 22.944 23.48L20.3201 23.8H19.2961C18.3787 23.7787 17.6427 23.6187 17.0881 23.32C16.7681 22.936 16.6081 22.5627 16.6081 22.2C16.8 21.3253 17.2481 20.888 17.9521 20.888C18.2081 20.9093 18.4747 20.92 18.7521 20.92H18.784V20.088C19.0401 18.0827 19.1681 16.7387 19.1681 16.056V14.744C18.7841 14.6587 18.0481 14.5947 16.9601 14.552C16.9601 14.4453 16.32 14.3387 15.04 14.232C14.4 14.168 14.0694 14.136 14.048 14.136C13.472 14.2427 12.416 14.3173 10.88 14.36C9.74938 14.5733 8.98138 14.68 8.57605 14.68H6.52805L6.59205 15.288V16.504C6.59205 17.1653 6.64538 17.9547 6.75205 18.872V20.696C6.77338 20.696 6.99738 20.6533 7.42405 20.568C8.17072 20.568 8.61872 21.0587 8.76805 22.04C8.76805 22.8507 8.25605 23.3093 7.23205 23.416H2.97605C2.05872 23.416 1.51472 23.0107 1.34405 22.2V22.04C1.34405 21.2933 1.83472 20.8453 2.81605 20.696H4.03205V19.352C3.90405 18.4773 3.84005 17.4213 3.84005 16.184V15.832C3.75472 15.1493 3.71205 14.7653 3.71205 14.68V14.488C3.71205 13.656 3.59472 11.5333 3.36005 8.12001V7.51201C3.18938 7.02135 3.10405 6.16801 3.10405 4.95201H2.43205C1.51472 4.95201 0.970715 4.54668 0.800049 3.73601V3.54401C0.800049 2.79735 1.29072 2.34935 2.27205 2.20001C5.06672 2.17868 6.46405 2.08268 6.46405 1.91201C6.52805 1.86935 6.70938 1.82668 7.00805 1.78401Z" fill="white"/>
</svg>
