<svg width="23" height="13" viewBox="0 0 23 13" fill="none" xmlns="http://www.w3.org/2000/svg">
<path d="M16.0703 4.21875V1.88281C16.0703 1.34115 16.3242 0.96875 16.832 0.765625C17.3398 0.5625 17.7799 0.647135 18.1523 1.01953L22.5195 5.38672C22.6888 5.55599 22.7904 5.74219 22.8242 5.94531C22.8919 6.14844 22.8919 6.35156 22.8242 6.55469C22.7904 6.75781 22.6888 6.94401 22.5195 7.11328L18.1523 11.4805C17.7799 11.8529 17.3398 11.9375 16.832 11.7344C16.3242 11.5312 16.0703 11.1589 16.0703 10.6172V8.28125H0.734375C0.328125 8.28125 0.125 8.07812 0.125 7.67188V4.82812C0.125 4.42188 0.328125 4.21875 0.734375 4.21875H16.0703Z" fill="white"/>
</svg>
