<svg width="45" height="61" viewBox="0 0 45 61"  xmlns="http://www.w3.org/2000/svg">
<path d="M20.1562 59.3281C18.2812 56.5938 16.1328 53.5078 13.7109 50.0703C11.3672 46.6328 9.6875 44.2109 8.67188 42.8047C7.65625 41.3984 6.48438 39.6797 5.15625 37.6484C3.82812 35.5391 2.92969 34.0547 2.46094 33.1953C2.07031 32.3359 1.60156 31.2422 1.05469 29.9141C0.585938 28.5859 0.273438 27.4531 0.117188 26.5156C0.0390625 25.5 0 24.3281 0 23C0 16.75 2.1875 11.4375 6.5625 7.0625C10.9375 2.6875 16.25 0.5 22.5 0.5C28.75 0.5 34.0625 2.6875 38.4375 7.0625C42.8125 11.4375 45 16.75 45 23C45 24.3281 44.9219 25.5 44.7656 26.5156C44.6875 27.4531 44.375 28.5859 43.8281 29.9141C43.3594 31.2422 42.8906 32.3359 42.4219 33.1953C42.0312 34.0547 41.1719 35.5391 39.8438 37.6484C38.5156 39.6797 37.3438 41.3984 36.3281 42.8047C35.3125 44.2109 33.5938 46.6328 31.1719 50.0703C28.8281 53.5078 26.7188 56.5938 24.8438 59.3281C24.2969 60.1094 23.5156 60.5 22.5 60.5C21.4844 60.5 20.7031 60.1094 20.1562 59.3281ZM15.8203 29.6797C17.6953 31.4766 19.9219 32.375 22.5 32.375C25.0781 32.375 27.2656 31.4766 29.0625 29.6797C30.9375 27.8047 31.875 25.5781 31.875 23C31.875 20.4219 30.9375 18.2344 29.0625 16.4375C27.2656 14.5625 25.0781 13.625 22.5 13.625C19.9219 13.625 17.6953 14.5625 15.8203 16.4375C14.0234 18.2344 13.125 20.4219 13.125 23C13.125 25.5781 14.0234 27.8047 15.8203 29.6797Z"/>
</svg>
