<?xml version="1.0" encoding="utf-8"?><svg viewBox="0 0 326 89" xmlns="http://www.w3.org/2000/svg" xmlns:xlink="http://www.w3.org/1999/xlink"><style>:root>svg{display:none}:root>svg:target{display:block}</style><svg fill="none" viewBox="0 0 10 7" id="arrow-down" xmlns="http://www.w3.org/2000/svg"><path d="M4.91 6.402L1.191 2.684c-.273-.274-.273-.684 0-.93l.602-.629c.273-.246.684-.246.93 0l2.625 2.652L8 1.125c.246-.246.656-.246.93 0l.601.629c.274.246.274.656 0 .93L5.812 6.402a.644.644 0 01-.902 0z" fill="#00215B"/></svg><svg fill="none" viewBox="0 0 37 19" id="arrow-red" xmlns="http://www.w3.org/2000/svg"><path d="M26 1.5l9 8.006L26 18" stroke="#D2153D" stroke-width="2" stroke-miterlimit="10"/><path stroke="#D2153D" stroke-width="3" d="M0 9.5h34"/></svg><svg fill="none" viewBox="0 0 13 7" id="arrow-right" xmlns="http://www.w3.org/2000/svg"><path d="M8.934 2.656V1.398c0-.574.71-.875 1.12-.464l2.352 2.378a.599.599 0 010 .903l-2.351 2.379c-.41.41-1.121.11-1.121-.465V4.844H.704a.316.316 0 01-.329-.328V2.984c0-.164.137-.328.328-.328h8.23z" fill="#fff"/></svg><svg fill="none" viewBox="0 0 18 20" id="arrow-triangle" xmlns="http://www.w3.org/2000/svg"><path d="M16.825 17.436a1.5 1.5 0 01-2.25 1.3l-12.75-7.362a1.5 1.5 0 010-2.598l12.75-7.36a1.5 1.5 0 012.25 1.298v14.722z" stroke="#000"/></svg><svg fill="none" viewBox="0 0 45 42" id="chat" xmlns="http://www.w3.org/2000/svg"><path fill-rule="evenodd" clip-rule="evenodd" d="M0 19.688C0 8.92 9.897 0 22.412 0 34.955 0 45 8.94 45 19.688c0 10.74-10.038 19.687-22.588 19.687-2.907 0-5.725-.479-8.387-1.424A14.578 14.578 0 013.955 42c-1.174 0-1.759-1.417-.932-2.24a7.958 7.958 0 002.118-7.52C1.823 28.717 0 24.273 0 19.686zM14.171 35.2a22.27 22.27 0 008.241 1.566c11.001 0 19.969-7.671 19.969-17.08 0-9.408-8.968-17.08-19.969-17.08-10.904 0-19.793 7.672-19.793 17.08 0 4.011 1.665 7.91 4.656 10.976.152.156.263.347.322.555a10.571 10.571 0 01-.803 7.812 11.912 11.912 0 005.917-3.496c.37-.402.951-.535 1.46-.333z" fill="#fff"/><path fill-rule="evenodd" clip-rule="evenodd" d="M8 20c0-2.206 1.794-4 4-4s4 1.794 4 4-1.794 4-4 4-4-1.794-4-4zm2.667 0c0 .735.598 1.333 1.333 1.333s1.333-.598 1.333-1.333-.598-1.333-1.333-1.333-1.333.598-1.333 1.333zM18 20c0-2.206 1.794-4 4-4s4 1.794 4 4-1.794 4-4 4-4-1.794-4-4zm2.667 0c0 .735.598 1.333 1.333 1.333s1.333-.598 1.333-1.333-.598-1.333-1.333-1.333-1.333.598-1.333 1.333zM29 20c0-2.206 1.794-4 4-4s4 1.794 4 4-1.794 4-4 4-4-1.794-4-4zm2.667 0c0 .735.598 1.333 1.333 1.333s1.333-.598 1.333-1.333-.598-1.333-1.333-1.333-1.333.598-1.333 1.333z" fill="#fff"/></svg><svg fill="none" viewBox="0 0 61 65" id="engineer" xmlns="http://www.w3.org/2000/svg"><path fill-rule="evenodd" clip-rule="evenodd" d="M60.125 30.728l-2.723-1.092V27.9c.038-10.658-7.174-20.168-17.963-23.685V1.768c0-.727-.632-1.316-1.41-1.316h-15.1c-.778 0-1.41.59-1.41 1.316v2.46C10.729 7.745 3.518 17.255 3.556 27.913v1.75L.861 30.728C.339 30.934 0 31.412 0 31.94v6.908c0 .726.632 1.316 1.411 1.316h1.835v2.632c0 .726.631 1.315 1.41 1.315h5.066a19.187 19.187 0 002.103 4.711L8.24 52.163a1.253 1.253 0 000 1.856l5.997 5.592c.55.51 1.439.51 1.99 0l3.583-3.342a22.186 22.186 0 005.038 1.96v4.724c0 .726.632 1.316 1.411 1.316h8.466c.78 0 1.411-.59 1.411-1.316V58.23a22.173 22.173 0 005.052-1.96l3.584 3.342c.55.51 1.44.51 1.99 0l5.997-5.592a1.253 1.253 0 000-1.856l-3.585-3.342a19.188 19.188 0 002.103-4.71h5.066c.779 0 1.41-.59 1.41-1.316v-2.632h1.835c.78 0 1.411-.59 1.411-1.316V31.94c-.003-.531-.348-1.009-.875-1.21zM24.313 3.097h12.304v21.987H24.341l-.028-21.987zm25.935 38.382h4.699l-.014-1.316H42.022c-.644 4.953-4.83 8.856-10.142 9.457-6.375.722-12.17-3.512-12.944-9.457H6.04v1.316h4.698c.677-.015 1.268.422 1.411 1.039a16.716 16.716 0 002.625 5.763 1.25 1.25 0 01-.184 1.645l-3.372 3.145 3.993 3.724 3.373-3.145a1.49 1.49 0 011.764-.171 19.249 19.249 0 006.208 2.408c.662.133 1.13.684 1.115 1.316v4.473h5.644v-4.434c-.015-.631.453-1.183 1.115-1.316a19.315 19.315 0 006.208-2.407 1.488 1.488 0 011.764.17l3.373 3.145 4.035-3.737-3.372-3.145a1.25 1.25 0 01-.183-1.644 16.681 16.681 0 002.582-5.79c.142-.617.734-1.054 1.41-1.04zm-28.433-1.316h17.37c-.776 4.476-5.297 7.519-10.097 6.795-3.745-.565-6.681-3.303-7.287-6.795h.014zM2.808 37.53h55.384v-4.697l-2.723-1.092c-.523-.206-.861-.683-.861-1.21v-2.633c.04-9.2-5.967-17.488-15.14-20.882V26.4c0 .726-.633 1.315-1.412 1.315H22.93c-.78 0-1.411-.59-1.411-1.315V7.017C12.36 10.412 6.36 18.683 6.392 27.873v2.632c0 .528-.339 1.005-.86 1.21l-2.724 1.092v4.724z" fill="#D2153D"/></svg><svg viewBox="0 0 9 15" id="facebook" xmlns="http://www.w3.org/2000/svg"><path d="M7.629 8.625h-2.05v6.125H2.843V8.625H.602V6.109h2.242V4.168C2.844 1.98 4.156.75 6.152.75c.957 0 1.97.191 1.97.191v2.16H7c-1.094 0-1.422.657-1.422 1.368v1.64h2.434l-.383 2.516z"/></svg><svg fill="none" viewBox="0 0 87 74" id="helmet" xmlns="http://www.w3.org/2000/svg"><path d="M2 60.054l18 11.5h49.5l15.5-11.5m-83 0v-10.5l4.5-2M2 60.054a464.26 464.26 0 015.5-.898m77.5.898v-9c-1.05-3.046-2.385-3.742-6-3.5m6 12.5c-2.131-.338-4.115-.655-6-.95M6.5 47.554l1 11.602m-1-11.602c.003-18.987 4.126-27.81 18-36.5l.017.5M7.5 59.156c5.668-.89 10.935-1.594 16-2.11M25 26.055c-.869 1.312-1.116 2.173-1 4l-.5 26.993M25 26.054c2.394-3.988 4.529-6.628 7-8.32m-7 8.32l-.483-14.5M23.5 57.047c13.196-1.344 25.021-1.407 39-.114m0 0c-.158-11.02.325-17.608-1.059-27.88m1.059 27.88c5.52.51 10.507 1.233 16.5 2.171m-17.559-30.05c-.13-.965-.276-1.963-.441-3-2.114-3.541-4.073-5.967-6.5-7.64m6.941 10.64v-18.5m-6.941-4.5c.319-1.752 2.5-2.5 3-2.5s3.169.777 3.941 2.5v4.5m-6.941-4.5v12.36m0-12.36h-6m6 12.36c-1.699-1.17-3.628-1.973-6-2.529m0-9.831v9.831m0-9.831c-.68-3.596-2.064-4.223-5.5-4-3.011-.274-4.296.418-5.5 4v9.456m11 .375c-1.607-.377-3.419-.641-5.5-.831-2.075.009-3.883.143-5.5.456m0 0c-2.094.405-3.87 1.108-5.5 2.224m5-11.68c-2.139-.46-3.266-.326-5 1.5m0 0v10.18m0-10.18c-.957-2.345-1.907-2.978-4-3.5-2.527 1.167-3.078 1.972-3.5 3.5l.017 4m54.483 36v11.55m0-11.55v-12.5c-2.85-11.09-5.307-16.985-17.559-24.5M29 37.054v15.5" stroke="#D2153D" stroke-width="3"/></svg><svg viewBox="0 0 13 13" id="linkedin" xmlns="http://www.w3.org/2000/svg"><path d="M2.734 13H.191V4.824h2.543V13zM1.45 3.73C.656 3.73 0 3.047 0 2.227 0 1.434.656.777 1.45.777c.82 0 1.476.657 1.476 1.45 0 .82-.656 1.503-1.477 1.503zM12.223 13H9.707V9.035c0-.957-.027-2.16-1.34-2.16-1.312 0-1.504 1.012-1.504 2.078V13H4.32V4.824h2.434v1.121h.027c.356-.629 1.176-1.312 2.407-1.312 2.57 0 3.062 1.695 3.062 3.883V13h-.027z"/></svg><svg fill="none" viewBox="0 0 326 67" id="logo" xmlns="http://www.w3.org/2000/svg"><path d="M309.352 12.898h2.52c1.316 0 3.087.837 5.311 2.511 2.588 1.81 4.472 3.892 5.652 6.245.726.996 1.362 2.852 1.906 5.567.318 1.72.477 3.168.477 4.344v3.666c0 1.312-.318 2.58-.953 3.801-1.181 3.214-3.11 5.476-5.788 6.789-1.226.498-2.361.814-3.405.95-2.179.498-3.495.747-3.949.747h-2.656a8.406 8.406 0 01-3.677-.815c-.681 0-2.02-.633-4.018-1.9-.953 0-2.383-.996-4.29-2.987-.681-.408-1.588-1.584-2.723-3.53-1.408-2.399-2.111-4.684-2.111-6.856v-6.11c0-1.403.249-2.353.749-2.85 2.724-3.621 4.993-5.748 6.809-6.382.409-.452 1.861-1.2 4.358-2.24l4.29-.815c.363-.09.863-.135 1.498-.135zm-9.805 12.83v5.023c.181 1.403.908 3.01 2.179 4.82 1.362 1.357 2.36 2.059 2.996 2.104 1.362.95 2.451 1.425 3.268 1.425.318.272.613.408.886.408h2.042c2.951-.498 4.79-1.087 5.516-1.765.636-.68 1.158-1.652 1.566-2.92.091 0 .227-.384.409-1.153v-3.53c-.409-2.896-.999-4.865-1.771-5.906-.635-1.358-1.952-2.625-3.949-3.801 0-.136-.454-.362-1.362-.68h-.885c-2.225 0-4.449.657-6.673 1.97-.273.27-.772.565-1.499.882-.862.77-1.77 1.81-2.723 3.122zM286.16 10.861c1.952 0 3.11.86 3.473 2.58v.407c0 .815-.477 1.63-1.43 2.444v6.041c0 1.584.182 3.78.545 6.585v2.036c0 .453.045.883.136 1.29 0 .181-.045.272-.136.272.091 1.584.136 2.76.136 3.53v4.887c0 .634-.613 4.413-1.838 11.337-.227.271-.613 1.697-1.158 4.276-.772 2.082-2.202 3.756-4.29 5.023-1.543.68-3.427 1.019-5.652 1.019 0 .09-.386.135-1.157.135h-3.133c-.953 0-3.541-.565-7.762-1.697-1.68-1.131-2.928-2.127-3.746-2.987-.363-.633-.544-1.176-.544-1.629 0-1.584 1.044-2.534 3.132-2.85.817 0 1.838.565 3.064 1.696 0 .227 1.18.566 3.541 1.019 0 .09.976.294 2.928.61h1.226c.227 0 1.384-.067 3.473-.203h.612c1.499-.407 2.248-.883 2.248-1.426.408-.543.749-1.538 1.021-2.986.091 0 .25-.68.477-2.037.227 0 .749-2.851 1.566-8.553l.136-.747v-2.24h-.136c0 .543-1.067 1.245-3.201 2.104-1.588 1.087-3.359 1.675-5.311 1.765h-2.315c-2.179-.09-4.222-.724-6.129-1.9-.681-.453-1.498-1.132-2.451-2.037-1.453-1.72-2.656-4.48-3.609-8.282a26.177 26.177 0 01-.136-2.443v-1.426c0-1.448.386-3.213 1.157-5.295.681-2.262 1.544-3.937 2.588-5.023.182 0 .885-.566 2.111-1.697 1.18-1.177 2.951-1.765 5.311-1.765h.477c2.905 0 4.925.385 6.06 1.154 1.135.498 2.429 1.222 3.882 2.172v-.136c-.681-.588-1.022-1.312-1.022-2.172 0-1.584 1.044-2.534 3.133-2.85h2.723zm-4.698 5.16v.135c.59.498.908.747.953.747v-.204c0-.136-.318-.362-.953-.679zm-15.866 10.046v2.444c.181 1.584.908 3.62 2.179 6.109.091 0 .613.385 1.566 1.154 1.271.679 2.565 1.018 3.881 1.018h.273c.998 0 2.678-.656 5.039-1.968.091 0 .567-.43 1.43-1.29.454 0 1.316-.883 2.587-2.647.227-.091.341-.363.341-.815v-.611c-.227-2.67-.341-4.277-.341-4.82-.908 0-2.247-1.108-4.017-3.326-2.315-1.72-4.313-2.67-5.993-2.851h-1.77c-.953 0-2.179.905-3.677 2.715l-1.498 4.888zM243.963 13.712h1.838c2.77 0 4.744.905 5.925 2.716 2.315 2.443 3.745 4.91 4.289 7.399.137 1.222.205 2.262.205 3.122v1.494c0 2.489-.931 3.937-2.792 4.344-.772.407-2.338.611-4.699.611h-2.042l-7.355.611v.136c.227 1.72.727 3.122 1.498 4.209.681 1.131 1.862 1.697 3.541 1.697 0 .226.5.362 1.498.407h1.09c2.406 0 3.609-.249 3.609-.747.59-.77 1.316-1.154 2.179-1.154 1.77 0 2.769 1.245 2.996 3.734v.136c0 2.127-.953 3.575-2.86 4.344a35.683 35.683 0 01-5.72.475h-1.157c-4.449-.498-6.674-.995-6.674-1.493-2.542-1.81-4.267-4.322-5.175-7.535-.862-2.851-1.294-5.16-1.294-6.924v-2.851c.137-2.851 1.249-6.245 3.337-10.183.863-1.267 2.293-2.58 4.29-3.937a9.838 9.838 0 013.473-.61zm-4.903 13.509h.136l6.605-.543h4.631c-.227-1.72-.84-3.078-1.839-4.073-.999-1.403-1.861-2.105-2.587-2.105h-2.316c-.817 0-1.883.906-3.2 2.716l-1.43 4.005zM203.285 14.663c1.498 0 2.542 1.018 3.132 3.054.182 1.72.432 2.76.75 3.123 2.996-3.304 6.219-4.956 9.669-4.956h1.975c2.406 0 4.562 1.222 6.469 3.666 2.678 2.58 4.017 4.548 4.017 5.906.59 2.082.885 3.824.885 5.227v5.363c0 2.715-1.589 5.046-4.766 6.992-2.769 1.312-5.221 1.968-7.354 1.968h-2.248c-.363 0-1.952-.317-4.766-.95v.407c0 1.177.295 3.53.885 7.06l-.34 1.697v2.24a35.143 35.143 0 01-1.294 7.128C208.71 65.529 206.94 67 204.988 67h-2.86c-1.68 0-3.541-.996-5.584-2.987-.59-.77-.885-1.606-.885-2.512.317-2.172 1.316-3.258 2.996-3.258.817 0 1.679.566 2.587 1.697.863.453 1.362.679 1.498.679h1.703c.635-1.04 1.067-3.145 1.294-6.313V50.64l-.749-9.3a20.61 20.61 0 00-1.09-3.462l-.068-.882.068-.272-.477-4.208a42.756 42.756 0 01-.817-4.209c-.181 0-.34-.656-.476-1.969-.137-.588-.273-.882-.409-.882-1.453 1.312-2.61 1.968-3.473 1.968h-.136c-1.997-.361-2.996-1.425-2.996-3.19 0-1.312.908-2.489 2.724-3.53.363-.452 1.089-1.72 2.179-3.801.998-1.494 2.088-2.24 3.268-2.24zm5.448 14.323c.771 3.937 1.157 6.155 1.157 6.652 1.907 1.765 3.496 2.648 4.767 2.648.817.271 1.589.407 2.315.407 2.406 0 4.653-.701 6.741-2.104l.681-.95v-3.666c0-1.63-.363-3.508-1.089-5.635-.091 0-.727-.656-1.907-1.968-1.316-1.403-2.224-2.105-2.724-2.105h-2.315c-1.271.181-2.905 1.11-4.903 2.784-.862.769-1.611 1.855-2.247 3.258-.227.453-.386.679-.476.679z" fill="#2C2323"/><path d="M170.584 4.005c-.364-1.72-1.521-2.58-3.473-2.58H156.08c-2.043.317-3.065 1.268-3.065 2.852v.339c.363 1.72 1.521 2.58 3.473 2.58h1.702v4.955c0 .453-.09 1.493-.272 3.123 0 3.348-.045 12.445-.136 27.288h-1.158c-2.088.317-3.132 1.267-3.132 2.851 0 1.675.999 2.67 2.996 2.987 2.678 0 5.357-.136 8.035-.407 2.043-.272 3.064-1.222 3.064-2.851v-.34c-.363-1.72-1.52-2.58-3.472-2.58h-.545v-12.15h.408c.454 0 1.181-.475 2.179-1.426.182.634.364.95.545.95.727 2.264 1.339 3.802 1.839 4.617 0 1.131.544 2.466 1.634 4.005.772 1.267 1.248 2.217 1.43 2.85 1.362 1.992 3.132 3.327 5.311 4.006 2.27.77 3.745 1.154 4.426 1.154 1.952.588 4.835.882 8.648.882h.886c1.225.498 1.974.747 2.247.747h.34c1.725-.362 2.588-1.516 2.588-3.462V40.39c-.318-2.036-1.271-3.055-2.86-3.055-1.816 0-2.883 1.313-3.201 3.938h-2.179c-4.312-.498-6.991-.996-8.035-1.494-1.271-.317-2.224-.747-2.86-1.29-.408-1.086-1.18-2.511-2.315-4.276-1.543-4.571-2.406-6.902-2.587-6.992l-.886-3.462c.227 0 1.521-1.245 3.882-3.734 1.452-1.81 2.269-2.715 2.451-2.715 1.907-2.082 2.928-3.123 3.064-3.123 1.135-1.538 1.907-2.308 2.315-2.308.454-.814 1.544-2.013 3.269-3.597h4.018c.59 0 20.558.397 33.732.509 33.622.284 83.822.068 96.877.012h.005a3.144 3.144 0 003.131-3.152c0-1.734-1.41-3.14-3.149-3.14H181.547c-2.043.272-3.065 1.2-3.065 2.784 0 .498.159 1.063.477 1.697 0 .18-.386.566-1.157 1.154-1.589 2.036-3.428 3.982-5.516 5.838-1.226 1.674-2.474 3.01-3.745 4.005-.727.77-1.158 1.154-1.294 1.154-2.224 2.308-3.405 3.462-3.541 3.462v-6.449c0-.136.091-1.177.272-3.123V7.196h3.473c2.088-.272 3.133-1.2 3.133-2.784v-.407z" fill="#D2153D"/><path d="M134.329 12.898h2.52c1.316 0 3.087.837 5.311 2.511 2.588 1.81 4.472 3.892 5.652 6.245.726.996 1.362 2.852 1.907 5.567.317 1.72.476 3.168.476 4.344v3.666c0 1.312-.318 2.58-.953 3.801-1.18 3.214-3.11 5.476-5.788 6.789-1.226.498-2.361.814-3.405.95-2.179.498-3.495.747-3.949.747h-2.656a8.41 8.41 0 01-3.677-.815c-.681 0-2.02-.633-4.018-1.9-.953 0-2.383-.996-4.289-2.987-.681-.408-1.589-1.584-2.724-3.53-1.407-2.399-2.111-4.684-2.111-6.856v-6.11c0-1.403.25-2.353.749-2.85 2.724-3.621 4.993-5.748 6.809-6.382.409-.452 1.862-1.2 4.358-2.24l4.29-.815c.363-.09.863-.135 1.498-.135zm-9.805 12.83v5.023c.181 1.403.908 3.01 2.179 4.82 1.362 1.357 2.36 2.059 2.996 2.104 1.362.95 2.451 1.425 3.268 1.425.318.272.613.408.886.408h2.042c2.951-.498 4.79-1.087 5.516-1.765.636-.68 1.158-1.652 1.566-2.92.091 0 .227-.384.409-1.153v-3.53c-.409-2.896-.999-4.865-1.771-5.906-.635-1.358-1.952-2.625-3.949-3.801 0-.136-.454-.362-1.362-.68h-.885c-2.225 0-4.449.657-6.673 1.97-.273.27-.772.565-1.498.882-.863.77-1.771 1.81-2.724 3.122zM102.707 0h2.179c2.451 0 5.039 1.335 7.763 4.005.499.95.749 1.856.749 2.715 0 1.901-.295 3.53-.885 4.888-.591 1.267-1.226 2.353-1.907 3.258-.363.634-1.317 1.924-2.86 3.87-.681 1.312-2.837 3.326-6.469 6.041-.545.588-.817.905-.817.95h.953c3.133.227 5.493.657 7.082 1.29 3.45 2.354 5.266 3.666 5.448 3.937 1.044 1.54 1.566 2.92 1.566 4.141v1.969c-.363 2.806-.704 4.209-1.022 4.209-.635 2.036-1.589 3.416-2.86 4.14-.272.68-1.362 1.38-3.268 2.105a9.656 9.656 0 01-3.064.475h-3.609c-.681 0-2.588-.159-5.72-.475-2.36 0-3.882-.476-4.563-1.426-.317 0-.771-2.376-1.361-7.127v-5.16c.136-1.448.204-2.262.204-2.443v-.883c-.227-.95-.34-1.561-.34-1.833 0-.09.113-.678.34-1.765-.136-1.176-.204-1.923-.204-2.24V21.18c0-.814.204-2.353.612-4.616.091 0 .137-.045.137-.135v-.408c.454-4.797.93-7.195 1.43-7.195.817-1.63 1.339-2.49 1.566-2.58a6.22 6.22 0 001.293-1.697C98.123 1.516 100.665 0 102.707 0zM95.83 21.858l2.45-2.376c.319 0 1.476-.905 3.474-2.715 0-.136.431-.634 1.294-1.493 0-.181.658-1.041 1.974-2.58 1.544-2.263 2.406-3.982 2.588-5.16-1.271-1.13-2.225-1.696-2.86-1.696h-1.771c-1.634.86-2.905 1.9-3.813 3.122-1.362 1.584-2.043 2.897-2.043 3.938l-1.293 8.96zm.272 9.64v.882c-.182 1.493-.272 2.308-.272 2.444v3.53c.408 2.217.658 3.326.749 3.326 1.452 0 2.928.18 4.426.543h4.562c2.224-.679 3.337-1.765 3.337-3.258.317 0 .567-1.019.749-3.055v-.136c0-.679-.863-1.493-2.588-2.444-.908-1.04-2.678-1.561-5.311-1.561 0-.136-.5-.226-1.498-.271h-4.154zM71.356 12.898h2.52c1.316 0 3.086.837 5.31 2.511 2.588 1.81 4.472 3.892 5.652 6.245.727.996 1.362 2.852 1.907 5.567.318 1.72.477 3.168.477 4.344v3.666c0 1.312-.318 2.58-.954 3.801-1.18 3.214-3.11 5.476-5.788 6.789-1.225.498-2.36.814-3.404.95-2.18.498-3.496.747-3.95.747H70.47a8.407 8.407 0 01-3.677-.815c-.68 0-2.02-.633-4.017-1.9-.954 0-2.384-.996-4.29-2.987-.681-.408-1.589-1.584-2.724-3.53-1.407-2.399-2.11-4.684-2.11-6.856v-6.11c0-1.403.249-2.353.748-2.85 2.724-3.621 4.994-5.748 6.81-6.382.408-.452 1.86-1.2 4.358-2.24l4.29-.815c.363-.09.862-.135 1.498-.135zm-9.806 12.83v5.023c.182 1.403.908 3.01 2.18 4.82 1.361 1.357 2.36 2.059 2.995 2.104 1.362.95 2.452 1.425 3.269 1.425.317.272.613.408.885.408h2.043c2.95-.498 4.79-1.087 5.515-1.765.636-.68 1.158-1.652 1.567-2.92.09 0 .227-.384.408-1.153v-3.53c-.408-2.896-.999-4.865-1.77-5.906-.636-1.358-1.952-2.625-3.95-3.801 0-.136-.454-.362-1.362-.68h-.885c-2.224 0-4.449.657-6.673 1.97-.272.27-.772.565-1.498.882-.863.77-1.77 1.81-2.724 3.122zM13.21 1.969c1.498 0 2.452.995 2.86 2.986-.363 2.127-1.453 3.19-3.268 3.19-1.271.272-1.952.408-2.043.408v.136c0 .77.159 2.58.476 5.43 0 .317.091 1.2.273 2.648v.814c0 2.218.136 4.187.409 5.906h4.63c3.087-.497 4.857-.746 5.311-.746h2.724c1.589-.272 2.542-.408 2.86-.408h1.702c2.679.272 4.994.566 6.946.883 0 .09.862.18 2.587.271V14.46c.364-2.534.545-4.458.545-5.77h-1.838c-1.952 0-3.11-.86-3.473-2.58v-.407c0-1.584 1.021-2.534 3.064-2.851h8.989c.453 0 1.044-.045 1.77-.136 1.407 0 2.315.996 2.724 2.987 0 1.765-1.067 2.76-3.2 2.987H45.01c-.09 2.67-.25 4.978-.477 6.924v7.603c.227 1.991.341 3.892.341 5.702v3.462c0 1.946-.25 5.136-.75 9.571v.408l1.295-.136h1.294c1.951 0 3.11.86 3.472 2.58v.339c0 1.629-1.021 2.58-3.064 2.85l-5.584.68h-2.179c-1.952-.045-3.518-.385-4.698-1.018-.681-.815-1.022-1.607-1.022-2.376.409-1.856 1.362-2.784 2.86-2.784.545.046 1.113.068 1.703.068h.068v-1.765c.545-4.254.817-7.105.817-8.553v-2.783c-.817-.181-2.383-.317-4.698-.407 0-.227-1.362-.453-4.086-.68a134.142 134.142 0 00-2.111-.203c-1.226.227-3.473.385-6.741.475-2.406.453-4.04.68-4.903.68h-4.358l.136 1.289v2.58c0 1.402.114 3.077.34 5.023v3.87c.046 0 .523-.091 1.43-.272 1.59 0 2.543 1.04 2.86 3.122 0 1.72-1.09 2.693-3.268 2.92H4.63c-1.952 0-3.11-.86-3.472-2.58v-.34c0-1.584 1.044-2.534 3.132-2.85h2.588v-2.852c-.273-1.855-.41-4.095-.41-6.72v-.747c-.18-1.448-.271-2.263-.271-2.444v-.407c0-1.765-.25-6.268-.75-13.509v-1.29c-.363-1.04-.544-2.85-.544-5.43h-1.43c-1.952 0-3.11-.86-3.473-2.58v-.407c0-1.584 1.044-2.534 3.132-2.851 5.947-.045 8.92-.249 8.92-.61.137-.091.523-.182 1.158-.272z" fill="#2C2323"/></svg><svg fill="none" viewBox="0 0 154 33" id="logo-footer" xmlns="http://www.w3.org/2000/svg"><path d="M146.177 6.936h1.184c.618 0 1.45.395 2.496 1.184 1.216.853 2.101 1.835 2.656 2.944.341.47.64 1.344.896 2.624.149.81.224 1.493.224 2.048v1.728c0 .619-.15 1.216-.448 1.792-.555 1.515-1.462 2.581-2.72 3.2a6.522 6.522 0 01-1.6.448c-1.024.235-1.643.352-1.856.352h-1.248a3.939 3.939 0 01-1.728-.384c-.32 0-.95-.299-1.888-.896-.448 0-1.12-.47-2.016-1.408-.32-.192-.747-.747-1.28-1.664-.662-1.13-.992-2.208-.992-3.232v-2.88c0-.661.117-1.11.352-1.344 1.28-1.707 2.346-2.71 3.2-3.008.192-.213.874-.565 2.048-1.056L145.473 7c.17-.043.405-.064.704-.064zm-4.608 6.048v2.368c.085.661.426 1.419 1.024 2.272.64.64 1.109.97 1.408.992.64.448 1.152.672 1.536.672.149.128.288.192.416.192h.96c1.386-.235 2.25-.512 2.592-.832.298-.32.544-.779.736-1.376.042 0 .106-.181.192-.544v-1.664c-.192-1.365-.47-2.293-.832-2.784-.299-.64-.918-1.237-1.856-1.792 0-.064-.214-.17-.64-.32h-.416c-1.046 0-2.091.31-3.136.928-.128.128-.363.267-.704.416-.406.363-.832.853-1.28 1.472zM135.278 5.976c.917 0 1.461.405 1.632 1.216v.192c0 .384-.224.768-.672 1.152v2.848c0 .747.085 1.781.256 3.104v.96c0 .213.021.416.064.608 0 .085-.022.128-.064.128.042.747.064 1.301.064 1.664v2.304c0 .299-.288 2.08-.864 5.344-.107.128-.288.8-.544 2.016-.363.981-1.035 1.77-2.016 2.368-.726.32-1.611.48-2.656.48 0 .043-.182.064-.544.064h-1.472c-.448 0-1.664-.267-3.648-.8-.79-.533-1.376-1.003-1.76-1.408-.171-.299-.256-.555-.256-.768 0-.747.49-1.195 1.472-1.344.384 0 .864.267 1.44.8 0 .107.554.267 1.664.48 0 .043.458.139 1.376.288h.576c.106 0 .65-.032 1.632-.096h.288c.704-.192 1.056-.416 1.056-.672.192-.256.352-.725.48-1.408.042 0 .117-.32.224-.96.106 0 .352-1.344.736-4.032l.064-.352v-1.056h-.064c0 .256-.502.587-1.504.992a4.718 4.718 0 01-2.496.832h-1.088a5.854 5.854 0 01-2.88-.896c-.32-.213-.704-.533-1.152-.96-.683-.81-1.248-2.112-1.696-3.904a12.301 12.301 0 01-.064-1.152v-.672c0-.683.181-1.515.544-2.496.32-1.067.725-1.856 1.216-2.368.085 0 .416-.267.992-.8.554-.555 1.386-.832 2.496-.832h.224c1.365 0 2.314.181 2.848.544.533.235 1.141.576 1.824 1.024v-.064a1.303 1.303 0 01-.48-1.024c0-.747.49-1.195 1.472-1.344h1.28zm-2.208 2.432v.064c.277.235.426.352.448.352v-.096c0-.064-.15-.17-.448-.32zm-7.456 4.736v1.152c.085.747.426 1.707 1.024 2.88.042 0 .288.181.736.544a3.82 3.82 0 001.824.48h.128c.469 0 1.258-.31 2.368-.928.042 0 .266-.203.672-.608.213 0 .618-.416 1.216-1.248.106-.043.16-.17.16-.384v-.288c-.107-1.259-.16-2.016-.16-2.272-.427 0-1.056-.523-1.888-1.568-1.088-.81-2.027-1.259-2.816-1.344h-.832c-.448 0-1.024.427-1.728 1.28l-.704 2.304zM115.448 7.32h.864c1.301 0 2.229.427 2.784 1.28 1.088 1.152 1.76 2.315 2.016 3.488.064.576.096 1.067.096 1.472v.704c0 1.173-.438 1.856-1.312 2.048-.363.192-1.099.288-2.208.288h-.96l-3.456.288v.064c.106.81.341 1.472.704 1.984.32.533.874.8 1.664.8 0 .107.234.17.704.192h.512c1.13 0 1.696-.117 1.696-.352.277-.363.618-.544 1.024-.544.832 0 1.301.587 1.408 1.76v.064c0 1.003-.448 1.685-1.344 2.048-.918.15-1.814.224-2.688.224h-.544c-2.091-.235-3.136-.47-3.136-.704-1.195-.853-2.006-2.037-2.432-3.552-.406-1.344-.608-2.432-.608-3.264v-1.344c.064-1.344.586-2.944 1.568-4.8.405-.597 1.077-1.216 2.016-1.856a4.61 4.61 0 011.632-.288zm-2.304 6.368h.064l3.104-.256h2.176c-.107-.81-.395-1.45-.864-1.92-.47-.661-.875-.992-1.216-.992h-1.088c-.384 0-.886.427-1.504 1.28l-.672 1.888zM96.332 7.768c.704 0 1.194.48 1.472 1.44.085.81.202 1.301.352 1.472 1.408-1.557 2.922-2.336 4.544-2.336h.928c1.13 0 2.144.576 3.04 1.728 1.258 1.216 1.888 2.144 1.888 2.784.277.981.416 1.803.416 2.464v2.528c0 1.28-.747 2.379-2.24 3.296-1.302.619-2.454.928-3.456.928h-1.056c-.171 0-.918-.15-2.24-.448v.192c0 .555.138 1.664.416 3.328l-.16.8V27a16.648 16.648 0 01-.608 3.36c-.747 1.387-1.58 2.08-2.496 2.08h-1.344c-.79 0-1.664-.47-2.624-1.408a1.908 1.908 0 01-.416-1.184c.149-1.024.618-1.536 1.408-1.536.384 0 .789.267 1.216.8.405.213.64.32.704.32h.8c.298-.49.5-1.483.608-2.976v-1.728l-.352-4.384a9.715 9.715 0 00-.512-1.632l-.032-.416.032-.128-.224-1.984a20.111 20.111 0 01-.384-1.984c-.086 0-.16-.31-.224-.928-.064-.277-.128-.416-.192-.416-.683.619-1.227.928-1.632.928H93.9c-.94-.17-1.408-.672-1.408-1.504 0-.619.426-1.173 1.28-1.664.17-.213.512-.81 1.024-1.792.469-.704.98-1.056 1.536-1.056zm2.56 6.752c.362 1.856.544 2.901.544 3.136.896.832 1.642 1.248 2.24 1.248.384.128.746.192 1.088.192 1.13 0 2.186-.33 3.168-.992l.32-.448v-1.728c0-.768-.171-1.653-.512-2.656-.043 0-.342-.31-.896-.928-.619-.661-1.046-.992-1.28-.992h-1.088c-.598.085-1.366.523-2.304 1.312-.406.363-.758.875-1.056 1.536-.107.213-.182.32-.224.32z" fill="#fff"/><path d="M80.964 2.744c-.17-.81-.715-1.216-1.632-1.216h-5.184c-.96.15-1.44.597-1.44 1.344v.16c.17.81.715 1.216 1.632 1.216h.8v2.336c0 .213-.043.704-.128 1.472 0 1.579-.022 5.867-.064 12.864h-.544c-.981.15-1.472.597-1.472 1.344 0 .79.47 1.259 1.408 1.408 1.258 0 2.517-.064 3.776-.192.96-.128 1.44-.576 1.44-1.344v-.16c-.17-.81-.715-1.216-1.632-1.216h-.256v-5.728h.192c.213 0 .555-.224 1.024-.672.085.299.17.448.256.448.341 1.067.63 1.792.864 2.176 0 .533.256 1.163.768 1.888.362.597.587 1.045.672 1.344.64.939 1.472 1.568 2.496 1.888 1.067.363 1.76.544 2.08.544.917.277 2.272.416 4.064.416h.416c.576.235.928.352 1.056.352h.16c.81-.17 1.216-.715 1.216-1.632v-1.888c-.15-.96-.597-1.44-1.344-1.44-.853 0-1.355.619-1.504 1.856H89.06c-2.027-.235-3.285-.47-3.776-.704-.598-.15-1.046-.352-1.344-.608-.192-.512-.555-1.184-1.088-2.016-.726-2.155-1.13-3.253-1.216-3.296l-.416-1.632c.106 0 .715-.587 1.824-1.76.683-.853 1.067-1.28 1.152-1.28.896-.981 1.376-1.472 1.44-1.472.533-.725.896-1.088 1.088-1.088.213-.384.725-.95 1.536-1.696h1.888c.277 0 9.66.188 15.852.24 15.8.134 39.391.032 45.526.006h.003A1.48 1.48 0 00153 3.52a1.48 1.48 0 00-1.48-1.48H86.116c-.96.128-1.44.565-1.44 1.312 0 .235.075.501.224.8 0 .085-.181.267-.544.544a20.8 20.8 0 01-2.592 2.752c-.576.79-1.163 1.419-1.76 1.888-.342.363-.544.544-.608.544-1.046 1.088-1.6 1.632-1.664 1.632v-3.04c0-.064.043-.555.128-1.472V4.248h1.632c.981-.128 1.472-.565 1.472-1.312v-.192zM63.927 6.936h1.184c.618 0 1.45.395 2.496 1.184 1.216.853 2.1 1.835 2.656 2.944.34.47.64 1.344.896 2.624.149.81.224 1.493.224 2.048v1.728c0 .619-.15 1.216-.448 1.792-.555 1.515-1.462 2.581-2.72 3.2a6.515 6.515 0 01-1.6.448c-1.024.235-1.643.352-1.856.352H63.51a3.94 3.94 0 01-1.728-.384c-.32 0-.95-.299-1.888-.896-.448 0-1.12-.47-2.016-1.408-.32-.192-.747-.747-1.28-1.664-.662-1.13-.992-2.208-.992-3.232v-2.88c0-.661.117-1.11.352-1.344 1.28-1.707 2.346-2.71 3.2-3.008.192-.213.874-.565 2.048-1.056L63.223 7c.17-.043.405-.064.704-.064zm-4.608 6.048v2.368c.085.661.426 1.419 1.024 2.272.64.64 1.109.97 1.408.992.64.448 1.152.672 1.536.672.149.128.288.192.416.192h.96c1.386-.235 2.25-.512 2.592-.832.298-.32.544-.779.736-1.376.042 0 .106-.181.192-.544v-1.664c-.192-1.365-.47-2.293-.832-2.784-.3-.64-.918-1.237-1.856-1.792 0-.064-.214-.17-.64-.32h-.416c-1.046 0-2.091.31-3.136.928-.128.128-.363.267-.704.416-.406.363-.832.853-1.28 1.472zM49.066.856h1.024c1.152 0 2.368.63 3.648 1.888.235.448.352.875.352 1.28 0 .896-.139 1.664-.416 2.304a8.577 8.577 0 01-.896 1.536c-.17.299-.619.907-1.344 1.824-.32.619-1.333 1.568-3.04 2.848-.256.277-.384.427-.384.448h.448c1.472.107 2.581.31 3.328.608 1.621 1.11 2.475 1.728 2.56 1.856.49.725.736 1.376.736 1.952v.928c-.17 1.323-.33 1.984-.48 1.984-.299.96-.747 1.61-1.344 1.952-.128.32-.64.65-1.536.992-.448.15-.928.224-1.44.224h-1.696c-.32 0-1.216-.075-2.688-.224-1.11 0-1.824-.224-2.144-.672-.15 0-.363-1.12-.64-3.36v-2.432c.064-.683.096-1.067.096-1.152v-.416c-.107-.448-.16-.736-.16-.864 0-.043.053-.32.16-.832-.064-.555-.096-.907-.096-1.056V10.84c0-.384.096-1.11.288-2.176.043 0 .064-.021.064-.064v-.192c.213-2.261.437-3.392.672-3.392.384-.768.63-1.173.736-1.216.235-.213.437-.48.608-.8 1.43-1.43 2.624-2.144 3.584-2.144zM45.834 11.16l1.152-1.12c.15 0 .693-.427 1.632-1.28 0-.064.203-.299.608-.704 0-.085.31-.49.928-1.216.725-1.067 1.13-1.877 1.216-2.432-.597-.533-1.045-.8-1.344-.8h-.832c-.768.405-1.365.896-1.792 1.472-.64.747-.96 1.365-.96 1.856l-.608 4.224zm.128 4.544v.416a26.139 26.139 0 00-.128 1.152v1.664c.192 1.045.31 1.568.352 1.568a8.81 8.81 0 012.08.256h2.144c1.045-.32 1.568-.832 1.568-1.536.15 0 .267-.48.352-1.44v-.064c0-.32-.405-.704-1.216-1.152-.427-.49-1.259-.736-2.496-.736 0-.064-.235-.107-.704-.128h-1.952zM34.333 6.936h1.184c.618 0 1.45.395 2.496 1.184 1.216.853 2.101 1.835 2.656 2.944.341.47.64 1.344.896 2.624.15.81.224 1.493.224 2.048v1.728c0 .619-.15 1.216-.448 1.792-.555 1.515-1.462 2.581-2.72 3.2a6.514 6.514 0 01-1.6.448c-1.024.235-1.643.352-1.856.352h-1.248a3.942 3.942 0 01-1.728-.384c-.32 0-.95-.299-1.888-.896-.448 0-1.12-.47-2.016-1.408-.32-.192-.747-.747-1.28-1.664-.662-1.13-.992-2.208-.992-3.232v-2.88c0-.661.117-1.11.352-1.344 1.28-1.707 2.347-2.71 3.2-3.008.192-.213.874-.565 2.048-1.056L33.629 7c.17-.043.405-.064.704-.064zm-4.608 6.048v2.368c.085.661.426 1.419 1.024 2.272.64.64 1.11.97 1.408.992.64.448 1.152.672 1.536.672.15.128.288.192.416.192h.96c1.386-.235 2.25-.512 2.592-.832.298-.32.544-.779.736-1.376.043 0 .107-.181.192-.544v-1.664c-.192-1.365-.47-2.293-.832-2.784-.299-.64-.917-1.237-1.856-1.792 0-.064-.214-.17-.64-.32h-.416c-1.045 0-2.09.31-3.136.928-.128.128-.363.267-.704.416-.405.363-.832.853-1.28 1.472zM7.008 1.784c.704 0 1.152.47 1.344 1.408-.17 1.003-.683 1.504-1.536 1.504-.597.128-.917.192-.96.192v.064c0 .363.075 1.216.224 2.56 0 .15.043.565.128 1.248v.384c0 1.045.064 1.973.192 2.784h2.176c1.45-.235 2.283-.352 2.496-.352h1.28c.747-.128 1.195-.192 1.344-.192h.8c1.259.128 2.347.267 3.264.416 0 .043.405.085 1.216.128V7.672c.17-1.195.256-2.101.256-2.72h-.864c-.917 0-1.461-.405-1.632-1.216v-.192c0-.747.48-1.195 1.44-1.344H22.4c.213 0 .49-.021.832-.064.661 0 1.088.47 1.28 1.408 0 .832-.501 1.301-1.504 1.408h-1.056a40.728 40.728 0 01-.224 3.264V11.8c.107.939.16 1.835.16 2.688v1.632c0 .917-.117 2.421-.352 4.512v.192l.608-.064h.608c.917 0 1.461.405 1.632 1.216v.16c0 .768-.48 1.216-1.44 1.344l-2.624.32h-1.024c-.917-.021-1.653-.181-2.208-.48-.32-.384-.48-.757-.48-1.12.192-.875.64-1.312 1.344-1.312.256.021.523.032.8.032h.032v-.832c.256-2.005.384-3.35.384-4.032v-1.312c-.384-.085-1.12-.15-2.208-.192 0-.107-.64-.213-1.92-.32a62.82 62.82 0 00-.992-.096c-.576.107-1.632.181-3.168.224-1.13.213-1.899.32-2.304.32H6.528l.064.608v1.216c0 .661.053 1.45.16 2.368v1.824c.021 0 .245-.043.672-.128.747 0 1.195.49 1.344 1.472 0 .81-.512 1.27-1.536 1.376H2.976c-.917 0-1.461-.405-1.632-1.216v-.16c0-.747.49-1.195 1.472-1.344h1.216v-1.344c-.128-.875-.192-1.93-.192-3.168v-.352c-.085-.683-.128-1.067-.128-1.152v-.192c0-.832-.117-2.955-.352-6.368v-.608c-.17-.49-.256-1.344-.256-2.56h-.672C1.515 4.952.971 4.547.8 3.736v-.192c0-.747.49-1.195 1.472-1.344 2.795-.021 4.192-.117 4.192-.288.064-.043.245-.085.544-.128z" fill="#fff"/></svg><svg fill="none" viewBox="0 0 23 13" id="long-arrow-right" xmlns="http://www.w3.org/2000/svg"><path d="M16.07 4.219V1.883c0-.542.254-.914.762-1.117.508-.204.948-.119 1.32.254l4.367 4.367c.17.169.271.355.305.558a.94.94 0 010 .61c-.034.203-.135.389-.305.558l-4.367 4.367c-.372.373-.812.457-1.32.254s-.762-.575-.762-1.117V8.281H.734c-.406 0-.609-.203-.609-.61V4.829c0-.406.203-.61.61-.61H16.07z" fill="#fff"/></svg><svg viewBox="0 0 45 61" id="map-marker" xmlns="http://www.w3.org/2000/svg"><path d="M20.156 59.328a898.352 898.352 0 00-6.445-9.258c-2.344-3.437-4.024-5.86-5.04-7.265a137.337 137.337 0 01-3.515-5.157c-1.328-2.109-2.226-3.593-2.695-4.453-.39-.86-.86-1.953-1.406-3.28-.47-1.33-.782-2.462-.938-3.4A46.42 46.42 0 010 23c0-6.25 2.188-11.563 6.563-15.938S16.25.5 22.5.5s11.563 2.188 15.938 6.563C42.812 11.438 45 16.75 45 23c0 1.328-.078 2.5-.234 3.516-.078.937-.391 2.07-.938 3.398-.469 1.328-.937 2.422-1.406 3.281-.39.86-1.25 2.344-2.578 4.453a137.33 137.33 0 01-3.516 5.157 880.38 880.38 0 00-5.156 7.265 4264.888 4264.888 0 01-6.328 9.258c-.547.781-1.328 1.172-2.344 1.172-1.016 0-1.797-.39-2.344-1.172zM15.82 29.68c1.875 1.797 4.102 2.695 6.68 2.695 2.578 0 4.766-.898 6.563-2.695 1.875-1.875 2.812-4.102 2.812-6.68 0-2.578-.938-4.766-2.813-6.563-1.796-1.875-3.984-2.812-6.562-2.812-2.578 0-4.805.938-6.68 2.813-1.797 1.796-2.695 3.984-2.695 6.562 0 2.578.898 4.805 2.695 6.68z"/></svg><svg fill="none" viewBox="0 0 61 67" id="measuring-tool" xmlns="http://www.w3.org/2000/svg"><path fill-rule="evenodd" clip-rule="evenodd" d="M49.862 30.052v34.702c0 .742-.634 1.343-1.416 1.343h-7.212c-.782 0-1.417-.601-1.417-1.343V31.732c0-.742.635-1.344 1.417-1.344h1.771V12.05c0-.741.635-1.344 1.417-1.344h8.614c1.842 0 3.131-1.652 3.882-2.995h-8.246c-.782 0-1.416-.602-1.416-1.344V3.062H25.72L8.633 10.223h22.216c.782 0 1.417.602 1.417 1.343v1.237h1.714c.782 0 1.417.601 1.417 1.343 0 .741-.635 1.343-1.417 1.343h-1.714v3.252h1.714c.782 0 1.417.602 1.417 1.343 0 .742-.635 1.343-1.417 1.343h-1.714v3.252h1.714c.782 0 1.417.602 1.417 1.343 0 .742-.635 1.344-1.417 1.344h-1.714v3.022h1.175c.782 0 1.417.602 1.417 1.344v33.022c0 .741-.635 1.343-1.417 1.343h-8.147c-.782 0-1.416-.602-1.416-1.343V44.4a52.124 52.124 0 00-13.22-4.03c-7.197-1.115-9.095-6.112-9.095-8.598 0-.742.634-1.344 1.416-1.344h26.453V12.964H1.917c-.68.014-1.274-.432-1.417-1.062v-.282c.004-.53.337-1.01.85-1.222L24.855.497c.179-.077.372-.119.567-.122h23.25c.782 0 1.417.602 1.417 1.344v3.305l8.926-.094c.153-.005.307.012.455.052.75.21 1.181.955.962 1.667-.085.31-2.125 6.718-7.382 6.718h-7.183v7.846h7.906c5.667.282 6.715 7.04 6.715 7.321.01.062.012.126.012.187-.006.741-.646 1.338-1.428 1.331h-9.21zm-17.837 5.71v-2.687l-27.36-.013c.525 1.532 2.027 3.923 6.461 4.608a53.894 53.894 0 0114.849 4.742c.455.237.738.69.736 1.182v19.79h5.314V62.2H30.31c-.782 0-1.417-.602-1.417-1.343 0-.742.635-1.343 1.417-1.343h1.715v-3.252H30.31c-.782 0-1.417-.602-1.417-1.343 0-.742.635-1.344 1.417-1.344h1.715v-3.25H30.31c-.782 0-1.417-.602-1.417-1.344 0-.742.635-1.344 1.417-1.344h1.715v-3.25H30.31c-.782 0-1.417-.602-1.417-1.344 0-.742.635-1.344 1.417-1.344h1.715v-3.25H30.31c-.782 0-1.417-.603-1.417-1.344 0-.742.635-1.343 1.417-1.343h1.715zm13.813-5.373v-6.557h7.836c2.054.108 3.088 2.042 3.584 3.48h-8.827c-.782 0-1.416.602-1.416 1.344v1.679l-1.177.053zm-3.187 2.686V63.41h4.377V33.075h-4.377z" fill="#D2153D"/></svg><svg fill="none" viewBox="0 0 42 42" id="phone" xmlns="http://www.w3.org/2000/svg"><path fill-rule="evenodd" clip-rule="evenodd" d="M35.699 25.756l5.221 5.222a3.696 3.696 0 010 5.22l-1.898 1.9c-5.204 5.203-13.626 5.203-18.83 0L3.894 21.79c-5.19-5.19-5.19-13.637 0-18.828l1.903-1.886a3.695 3.695 0 015.218.004l5.22 5.203a3.69 3.69 0 01.001 5.223l-2.373 2.373a2.795 2.795 0 000 3.956L24.149 28.13a2.8 2.8 0 003.955 0l2.373-2.373a3.697 3.697 0 015.222 0zM9.274 2.822a1.233 1.233 0 00-1.741-.002l-.866.859 6.957 6.957.87-.87a1.23 1.23 0 000-1.74l-5.22-5.204zm12.66 33.535L5.634 20.05a10.82 10.82 0 01-.68-14.602l6.938 6.936a5.253 5.253 0 00.229 7.19L22.408 29.87a5.253 5.253 0 007.19.23l6.938 6.936a10.8 10.8 0 01-14.602-.679zM38.31 35.33l.87-.87c.48-.48.48-1.261 0-1.74l-5.221-5.222c-.48-.48-1.261-.48-1.741 0l-.87.87 6.962 6.962z" fill="#fff"/></svg><svg viewBox="0 0 29 34" id="play" xmlns="http://www.w3.org/2000/svg"><path d="M26.5 14.438c1.938 1.187 1.938 4 0 5.187l-22 13C2.5 33.813 0 32.375 0 30V4C0 1.437 2.688.375 4.5 1.437l22 13z"/></svg><svg fill="none" viewBox="0 0 9 10" id="plus--blue" xmlns="http://www.w3.org/2000/svg"><path d="M3.547 9.108V6.006H.313v-1.87h3.234V.924H5.46v3.212h3.234v1.87H5.46v3.102H3.547z" fill="#001ED3"/></svg><svg viewBox="0 0 23 23" id="plus--red" xmlns="http://www.w3.org/2000/svg"><path stroke="#D2153D" stroke-width="4" stroke-linecap="round" d="M11.967 2v19M2 11.8h19"/></svg><svg fill="none" viewBox="0 0 32 28" id="quote" xmlns="http://www.w3.org/2000/svg"><path d="M29 0c1.625 0 3 1.375 3 3v15c0 5.563-4.5 10-10 10h-.5c-.875 0-1.5-.625-1.5-1.5v-3c0-.813.625-1.5 1.5-1.5h.5c2.188 0 4-1.75 4-4v-4h-5c-1.688 0-3-1.313-3-3V3a3 3 0 013-3h8zM11 0c1.625 0 3 1.375 3 3v15c0 5.563-4.5 10-10 10h-.5c-.875 0-1.5-.625-1.5-1.5v-3c0-.813.625-1.5 1.5-1.5H4c2.188 0 4-1.75 4-4v-4H3c-1.688 0-3-1.313-3-3V3a3 3 0 013-3h8z" fill="#fff"/></svg><svg fill="none" viewBox="0 0 62 68" id="ruler" xmlns="http://www.w3.org/2000/svg"><path fill-rule="evenodd" clip-rule="evenodd" d="M19.883 66.178V19.452H43.1c.773 0 1.4-.6 1.4-1.339V2.181c0-.739-.627-1.339-1.4-1.339H1.9c-.773 0-1.4.6-1.4 1.34v63.996c0 .739.627 1.339 1.4 1.339h16.583c.773 0 1.4-.6 1.4-1.34zM41.7 3.52v13.254H19.057L5.272 3.52h36.429zM3.299 5.42v59.418l13.785.188v-4.419h-3.47c-.773 0-1.4-.6-1.4-1.339s.627-1.338 1.4-1.338h3.47v-2.678h-3.47c-.773 0-1.4-.6-1.4-1.339 0-.74.627-1.339 1.4-1.339h3.47v-2.678h-6.437c-.773 0-1.4-.6-1.4-1.338 0-.74.627-1.34 1.4-1.34h6.437v-2.677h-3.47c-.773 0-1.4-.6-1.4-1.339s.627-1.339 1.4-1.339h3.47v-2.677h-3.47c-.773 0-1.4-.6-1.4-1.339 0-.74.627-1.339 1.4-1.339h3.47v-2.678h-6.437c-.773 0-1.4-.6-1.4-1.339s.627-1.338 1.4-1.338h6.437v-2.678h-3.47c-.773 0-1.4-.6-1.4-1.339s.627-1.338 1.4-1.338h3.47V23.12h-3.47c-.773 0-1.4-.6-1.4-1.339 0-.74.627-1.339 1.4-1.339h3.47v-1.834L3.3 5.421z" fill="#D2153D"/><path fill-rule="evenodd" clip-rule="evenodd" d="M21.5 34.571v.014-.014zm0 .004c.004.286.102.565.28.795l9.924 13.046s.112.082.168.136a.454.454 0 01.052.062c.024.032.045.062.088.087l19.439 13.791c1.444 1.238 3.5 1.56 5.277.826a6.08 6.08 0 002.33-1.95l1.179-1.583A5.557 5.557 0 0061.5 56.51c-.058-1.66-.967-3.182-2.428-4.06L39.577 38.712a1.434 1.434 0 00-.252-.108s-.085 0-.127-.08l-15.845-5.225c-.734-.24-1.532.14-1.778.848a1.32 1.32 0 00-.075.428zm35.916 20.094a2.478 2.478 0 011.29 1.868 2.967 2.967 0 01-.729 1.678l-1.179 1.543a3.395 3.395 0 01-1.235 1.096l-.01.005c-.262.112-1.032.443-2.432-.546l-1.263-.893 2.147-2.815 2.133-2.829 1.278.893zm-4.856-.77l1.32-1.733-14.794-10.462-4.295 5.63 14.794 10.462 1.319-1.72-11.425-8.12a1.368 1.368 0 01-.14-.1 1.32 1.32 0 01-.18-1.905 1.438 1.438 0 011.976-.174l11.425 8.121zM36.518 40.484l-3.692 4.846-2.287-3.005 2.315-3.045 3.664 1.204zm-7.72-.446l1.278-1.678-3.397-1.11 2.12 2.788z" fill="#D2153D"/></svg><svg fill="none" viewBox="0 0 79 89" id="screwdrivers" xmlns="http://www.w3.org/2000/svg"><path d="M6.5 44.107v-32H4l3-8.5h5l3 8.5h-2.5v32m-6 0h6m-6 0l-4.5.5v3.5l3 1.5v4l-3 2v25l5 6h6l4-6v-25l-3-2v-4l2.5-1.5v-3.5l-4-.5m-4 13.5v23.5m0-23.5l2.5 23.5m-2.5-23.5h.625m-.625 23.5l2.5-23.5m-2.5 23.5H9m2 0v-23.5m0 23.5h-.625m.625-23.5h-.625m-.625 23.5v-23.5m0 23.5H9m.75 0h.625m-.625-23.5h-.625m.625 0h.625m-1.25 0L9 81.107m1.375 0v-23.5M36.5 44.107v-32l2.5-9.5h1l2.5 9.5v32m-6 0h6m-6 0l-4.5.5v3.5l3 1.5v4l-3 2v25l5 6h6l4-6v-25l-3-2v-4l2.5-1.5v-3.5l-4-.5m-4 13.5v23.5m0-23.5l2.5 23.5m-2.5-23.5h.625m-.625 23.5l2.5-23.5m-2.5 23.5h.5m2 0v-23.5m0 23.5h-.625m.625-23.5h-.625m-.625 23.5v-23.5m0 23.5H39m.75 0h.625m-.625-23.5h-.625m.625 0h.625m-1.25 0L39 81.107m1.375 0v-23.5M66.5 44.107v-28.5h-2v-13.5H75v13.5h-2.5v28.5m-6 0h6m-6 0l-4.5.5v3.5l3 1.5v4l-3 2v25l5 6h6l4-6v-25l-3-2v-4l2.5-1.5v-3.5l-4-.5m-4 13.5v23.5m0-23.5l2.5 23.5m-2.5-23.5h.625m-.625 23.5l2.5-23.5m-2.5 23.5h.5m2 0v-23.5m0 23.5h-.625m.625-23.5h-.625m-.625 23.5v-23.5m0 23.5H69m.75 0h.625m-.625-23.5h-.625m.625 0h.625m-1.25 0L69 81.107m1.375 0v-23.5" stroke="#D2153D" stroke-width="3"/></svg><svg fill="none" viewBox="0 0 88 87" id="tassel" xmlns="http://www.w3.org/2000/svg"><path d="M65.5 1.554H86v80.5c-.96 1.743-1.674 2.374-3.5 2.5-2.03-.354-2.639-.947-3-2.5v-10c-.389-1.025-.801-1.521-2.5-2-1.255.218-1.81.633-2.5 2v4c-.557 1.53-1.163 2.003-2.5 2.5-1.464-.607-2.198-1.05-3-2.5v-12c-2.265-.933-3.383-1.639-4-4.5l.5-25m0-33H50m15.5 0v33m-15.5-33h-3.5c-3.293 5.868-5.66 8.432-11 11.5l-18-2c-8.104 1.047-11.632 2.278-15.5 6 3.42 5.728 7.097 6.82 15.5 6.5l18-1.5c5.307 3.136 7.801 5.726 11 12.5H50m0-33v33m0 0h15.5m6.5-26.5v41.5m6-44V55.29m-1 3.764v2m0-2h2m-2 0l2 2m-2 0h2m-2 0l2-2m0 2v-2m-8-8h2m-2 0v2m0-2l2 2m0-2v2m0-2l-2 2m2 0h-2" stroke="#D2153D" stroke-width="3"/></svg><svg viewBox="0 0 14 12" id="twitter" xmlns="http://www.w3.org/2000/svg"><path d="M12.55 2.906v.383c0 3.8-2.87 8.149-8.148 8.149-1.64 0-3.144-.465-4.402-1.286.219.028.438.055.684.055 1.34 0 2.57-.465 3.554-1.23a2.857 2.857 0 01-2.68-1.997c.192.028.356.055.547.055.247 0 .52-.055.739-.11A2.875 2.875 0 01.547 4.11v-.027c.383.219.848.328 1.312.356a2.825 2.825 0 01-1.285-2.38c0-.546.137-1.038.383-1.449a8.33 8.33 0 005.934 3.008 2.697 2.697 0 01-.082-.656A2.87 2.87 0 019.679.09c.821 0 1.56.328 2.106.902a6.063 6.063 0 001.805-.71 2.805 2.805 0 01-1.258 1.585 5.382 5.382 0 001.64-.437 6.083 6.083 0 01-1.421 1.476z"/></svg><svg viewBox="0 0 16 11" id="youtube" xmlns="http://www.w3.org/2000/svg"><path d="M15.012 2.168c.328 1.148.328 3.61.328 3.61s0 2.433-.328 3.609a1.824 1.824 0 01-1.313 1.312C12.523 11 7.875 11 7.875 11s-4.676 0-5.852-.3A1.824 1.824 0 01.711 9.386C.383 8.21.383 5.777.383 5.777s0-2.46.328-3.609A1.86 1.86 0 012.023.828C3.2.5 7.875.5 7.875.5s4.648 0 5.824.328a1.86 1.86 0 011.313 1.34zM6.344 7.992l3.883-2.215-3.883-2.215v4.43z"/></svg></svg>